<svg width="822" height="175" viewBox="0 0 822 175" fill="none" xmlns="http://www.w3.org/2000/svg">
<rect width="822" height="175"/>
<path fill-rule="evenodd" clip-rule="evenodd" d="M808 164C810.209 164 812 162.209 812 160C812 157.791 810.209 156 808 156C805.791 156 804 157.791 804 160C804 162.209 805.791 164 808 164Z" fill="white" stroke="#48639C" stroke-width="2"/>
<path d="M412 1C412 174.251 808.665 28.5275 807.998 156" stroke="#4545A4" stroke-width="2"/>
<path d="M411 1C411 174.251 14.3346 28.5275 15.0018 156" stroke="#4545A4" stroke-width="2"/>
<path d="M411.5 1.5V156.5" stroke="#4545A4" stroke-width="2" stroke-linecap="square"/>
<path fill-rule="evenodd" clip-rule="evenodd" d="M411 175C418.732 175 425 168.732 425 161C425 153.268 418.732 147 411 147C403.268 147 397 153.268 397 161C397 168.732 403.268 175 411 175Z" fill="#4545A4" fill-opacity="0.1"/>
<path fill-rule="evenodd" clip-rule="evenodd" d="M411 165C413.209 165 415 163.209 415 161C415 158.791 413.209 157 411 157C408.791 157 407 158.791 407 161C407 163.209 408.791 165 411 165Z" fill="white" stroke="#4545A4" stroke-width="2"/>
<path fill-rule="evenodd" clip-rule="evenodd" d="M14 174C21.732 174 28 167.732 28 160C28 152.268 21.732 146 14 146C6.26801 146 0 152.268 0 160C0 167.732 6.26801 174 14 174Z" fill="#48639C" fill-opacity="0.1"/>
<path fill-rule="evenodd" clip-rule="evenodd" d="M14 164C16.2091 164 18 162.209 18 160C18 157.791 16.2091 156 14 156C11.7909 156 10 157.791 10 160C10 162.209 11.7909 164 14 164Z" fill="white" stroke="#48639C" stroke-width="2"/>
<path fill-rule="evenodd" clip-rule="evenodd" d="M808 175C815.732 175 822 168.732 822 161C822 153.268 815.732 147 808 147C800.268 147 794 153.268 794 161C794 168.732 800.268 175 808 175Z" fill="#48639C" fill-opacity="0.1"/>
</svg>
