<svg width="1013" height="791" viewBox="0 0 1013 791" fill="none" xmlns="http://www.w3.org/2000/svg">
<rect width="1013" height="791" />
<path d="M1013 0H2V791H1013V0Z" />
<path opacity="0.1" d="M804.64 782.746C871.792 782.746 926.23 775.74 926.23 767.096C926.23 758.453 871.792 751.446 804.64 751.446C737.488 751.446 683.05 758.453 683.05 767.096C683.05 775.74 737.488 782.746 804.64 782.746Z" fill="#6C63FF"/>
<path opacity="0.1" d="M47.15 338.196V476.536H263.92V338.196H47.15ZM47.15 480.806V599.606C48.39 599.866 49.62 600.116 50.84 600.326C52.5 600.646 54.15 600.936 55.84 601.186C56.16 601.236 56.49 601.286 56.84 601.316C57.5 601.426 58.18 601.516 58.84 601.606C60.51 601.836 62.17 602.026 63.84 602.176C64.63 602.256 65.43 602.326 66.23 602.386L68.16 602.536C69.21 602.616 70.25 602.676 71.28 602.706C71.92 602.706 72.56 602.766 73.22 602.786C73.72 602.786 74.22 602.786 74.74 602.786C75.26 602.786 76 602.786 76.63 602.786C77.49 602.786 78.35 602.786 79.2 602.786H80.35C81.21 602.786 82.07 602.786 82.92 602.706H82.98C83.57 602.706 84.17 602.706 84.77 602.626C84.9365 602.636 85.1035 602.636 85.27 602.626C85.77 602.626 86.27 602.626 86.75 602.556H87.1L90.45 602.296C91.55 602.196 92.66 602.066 93.78 601.946L96.06 601.676C105.336 600.377 114.508 598.425 123.51 595.836C143.73 590.196 163.51 582.306 183.72 576.526C209.85 569.076 238.72 565.416 263.97 574.526V480.806H47.15ZM263.92 184.186V0.0163539C240.187 -0.24077 216.519 2.53503 193.49 8.27636C138.6 22.0664 89.35 51.9764 47.15 90.1764V184.176H58.03V188.446H47.15V333.926H263.92V188.456H102.7V184.186H263.92ZM542.35 121.976C528.77 121.496 515.27 117.196 503.06 110.556C479.71 97.8564 461.06 78.2464 440.22 61.6964C396.92 27.2264 343.22 6.42635 288.13 1.26635V184.186H597.58L598.35 183.376L542.35 121.976ZM570.54 116.976L600.43 149.776V108.376C590.42 109.616 581.65 112.566 570.58 116.936L570.54 116.976ZM600.43 629.106V480.806H536.74C536.57 480.176 536.4 479.536 536.2 478.896C536.39 479.536 536.55 480.176 536.73 480.806H288.17V588.056C290.53 589.806 292.86 591.646 295.17 593.516C297.66 595.516 300.12 597.626 302.59 599.696L305.08 601.756C306.27 602.756 307.47 603.756 308.68 604.696C311.08 606.643 313.503 608.563 315.95 610.456C317.16 611.456 318.4 612.356 319.63 613.296C339.157 628.226 359.756 641.699 381.26 653.606C386.08 656.273 390.943 658.876 395.85 661.416C399.12 663.086 402.41 664.746 405.71 666.356C410.67 668.776 415.67 671.11 420.71 673.356C467.176 694.215 516.311 708.528 566.71 715.886C577.903 717.54 589.14 718.84 600.42 719.786V629.096H601.42L600.43 629.106ZM288.17 188.456V333.926H600.47V188.456H288.17ZM288.17 338.196V476.536H600.47V338.196H288.17ZM624.71 108.196V154.376L662.86 112.516C650.22 110.476 637.503 109.02 624.71 108.146V108.196ZM624.71 338.246V476.536H928.46V338.196L624.71 338.246ZM927.35 640.086L928.42 480.806H624.71V721.376C644.275 722.198 663.87 721.965 683.41 720.676H683.75C693.083 720.09 702.373 719.236 711.62 718.116H711.83C761.161 712.375 809.397 699.504 855.03 679.906L927.35 640.086ZM987.03 360.976C985.89 358.286 984.7 355.616 983.49 352.976C981.23 347.976 978.84 343.116 976.38 338.256H952.68V476.536H1012.6C1012.57 437.376 1002.66 397.376 987.06 360.926L987.03 360.976ZM952.68 480.856V617.856C969.56 601.676 983.82 583.166 994.09 562.006C1006.44 536.526 1012.09 508.936 1012.55 480.836L952.68 480.856ZM952.68 297.936V333.936H974.16C967.662 321.544 960.502 309.51 952.71 297.886L952.68 297.936ZM746.68 135.336C745.1 134.736 743.52 134.126 741.93 133.536C725.161 127.344 708.025 122.194 690.62 118.116L632.24 182.186L631.12 183.376L631.87 184.196H839.65C810.712 164.277 779.514 147.859 746.71 135.286L746.68 135.336ZM845.74 188.506H628.97L624.71 192.406V333.926H662.05H662.11H928.5V265.376C904.402 236.232 876.589 210.372 845.77 188.456L845.74 188.506Z" fill="#6C63FF"/>
<path opacity="0.1" d="M123.46 209.286V333.926H47.15V209.286H58.03V167.086H102.69V209.286H123.46Z" fill="#6C63FF"/>
<path opacity="0.1" d="M123.46 338.196H47.16V476.526H123.46V338.196Z" fill="#6C63FF"/>
<path opacity="0.1" d="M47.15 480.816H123.46V595.816C114.458 598.403 105.286 600.351 96.01 601.646L93.73 601.926C92.61 602.056 91.5 602.166 90.4 602.276C89.3 602.386 88.16 602.466 87.05 602.536H86.7C86.22 602.536 85.7 602.596 85.23 602.606H84.72C84.12 602.606 83.52 602.666 82.92 602.686C82.07 602.736 81.22 602.746 80.35 602.756C79.98 602.756 79.63 602.756 79.26 602.756C78.4 602.756 77.55 602.756 76.69 602.756H74.8C74.29 602.756 73.8 602.756 73.27 602.756L71.34 602.686C70.34 602.686 69.26 602.576 68.22 602.506L66.3 602.366L63.91 602.146C62.23 601.996 60.56 601.806 58.91 601.576L56.91 601.296L55.91 601.156C54.24 600.896 52.59 600.616 50.91 600.296C49.68 600.086 48.46 599.826 47.22 599.576L47.15 480.816Z" fill="#6C63FF"/>
<path opacity="0.1" d="M600.47 194.566H537.55V333.916H600.47V194.566Z" fill="#6C63FF"/>
<path opacity="0.1" d="M600.48 338.196V476.536H288.17V416.866H454.52V452.066H537.55V338.196H600.48Z" fill="#6C63FF"/>
<path opacity="0.1" d="M601.47 629.136H600.47V719.886C589.203 718.933 577.97 717.636 566.77 715.996C516.346 708.614 467.191 694.271 420.71 673.376C407.29 667.336 394.143 660.743 381.27 653.596C359.766 641.683 339.165 628.21 319.63 613.286C314.723 609.526 309.88 605.68 305.1 601.746C301.79 599.016 298.5 596.216 295.17 593.496C292.86 591.626 290.53 589.786 288.17 588.026V480.816H536.72C536.55 480.176 536.38 479.536 536.2 478.906C536.39 479.536 536.57 480.176 536.74 480.816H600.47V629.076C600.81 629.086 601.14 629.116 601.47 629.136Z" fill="#6C63FF"/>
<path opacity="0.1" d="M764.57 184.186H723.57V171.446H741.95V133.496C743.543 134.076 745.13 134.673 746.71 135.286V171.446H764.57V184.186Z" fill="#6C63FF"/>
<path opacity="0.1" d="M863.35 333.926H662.07C662.07 333.926 662.07 333.926 662.14 333.976L662.05 333.926H624.71V194.576H635.29V297.576H683.64V236.576H723.58V188.466H764.58V236.616H804.52V297.616H863.35V333.926Z" fill="#6C63FF"/>
<path opacity="0.1" d="M624.71 338.196V476.536H863.35V338.196H624.71ZM928.13 639.376L928.46 529.876H863.35V480.876H624.71V721.376C644.275 722.198 663.87 721.965 683.41 720.676H683.75C693.083 720.09 702.373 719.236 711.62 718.116H711.83C761.161 712.375 809.397 699.504 855.03 679.906" fill="#6C63FF"/>
<path opacity="0.1" d="M600.48 233.306H566.77V276.996H600.48V233.306Z" fill="#6C63FF"/>
<path opacity="0.1" d="M600.48 323.866H566.77V333.926H600.48V323.866Z" fill="#6C63FF"/>
<path opacity="0.1" d="M600.48 338.196H566.77V367.546H600.48V338.196Z" fill="#6C63FF"/>
<path opacity="0.1" d="M600.48 414.426H566.77V458.116H600.48V414.426Z" fill="#6C63FF"/>
<path opacity="0.1" d="M600.48 504.986H566.77V548.676H600.48V504.986Z" fill="#6C63FF"/>
<path opacity="0.1" d="M600.47 629.076C600.81 629.076 601.14 629.076 601.47 629.136H600.47V639.286H566.77V595.546H600.47V629.076Z" fill="#6C63FF"/>
<path opacity="0.1" d="M600.47 686.086V719.836C589.203 718.883 577.97 717.586 566.77 715.946V686.086H600.47Z" fill="#6C63FF"/>
<path opacity="0.1" d="M432.64 473.326H288.17V476.536H432.64V473.326Z" fill="#6C63FF"/>
<path opacity="0.1" d="M432.64 480.806H288.17V493.106H432.64V480.806Z" fill="#6C63FF"/>
<path opacity="0.1" d="M432.64 533.426H288.17V553.206H432.64V533.426Z" fill="#6C63FF"/>
<path opacity="0.1" d="M432.63 593.526V613.306H319.63C314.723 609.56 309.877 605.713 305.09 601.766C301.78 599.036 298.5 596.236 295.16 593.526H432.63Z" fill="#6C63FF"/>
<path opacity="0.1" d="M432.63 653.616V673.376H420.7C407.293 667.33 394.15 660.733 381.27 653.586L432.63 653.616Z" fill="#6C63FF"/>
<path opacity="0.1" d="M711.86 351.606H683.42V380.046H711.86V351.606Z" fill="#6C63FF"/>
<path opacity="0.1" d="M96.08 219.096H67.64V247.536H96.08V219.096Z" fill="#6C63FF"/>
<path opacity="0.1" d="M96.08 285.156H67.64V313.596H96.08V285.156Z" fill="#6C63FF"/>
<path opacity="0.1" d="M96.08 351.216H67.64V379.656H96.08V351.216Z" fill="#6C63FF"/>
<path opacity="0.1" d="M96.08 417.266H67.64V445.706H96.08V417.266Z" fill="#6C63FF"/>
<path opacity="0.1" d="M96.08 483.326H67.64V511.766H96.08V483.326Z" fill="#6C63FF"/>
<path opacity="0.1" d="M96.08 549.386H67.64V577.826H96.08V549.386Z" fill="#6C63FF"/>
<path opacity="0.1" d="M820.43 351.606H791.99V380.046H820.43V351.606Z" fill="#6C63FF"/>
<path opacity="0.1" d="M711.86 421.756H683.42V450.196H711.86V421.756Z" fill="#6C63FF"/>
<path opacity="0.1" d="M820.43 421.756H791.99V450.196H820.43V421.756Z" fill="#6C63FF"/>
<path opacity="0.1" d="M711.86 491.896H683.42V520.336H711.86V491.896Z" fill="#6C63FF"/>
<path opacity="0.1" d="M820.43 491.896H791.99V520.336H820.43V491.896Z" fill="#6C63FF"/>
<path opacity="0.1" d="M711.86 562.046H683.42V590.486H711.86V562.046Z" fill="#6C63FF"/>
<path opacity="0.1" d="M820.43 562.046H791.99V590.486H820.43V562.046Z" fill="#6C63FF"/>
<path opacity="0.1" d="M711.86 632.196H683.42V660.636H711.86V632.196Z" fill="#6C63FF"/>
<path opacity="0.1" d="M820.43 632.196H791.99V660.636H820.43V632.196Z" fill="#6C63FF"/>
<path opacity="0.1" d="M683.42 720.676V702.336H711.85V718.066L683.42 720.676Z" fill="#6C63FF"/>
<path opacity="0.1" d="M662.07 333.926H662.13H662.07ZM600.47 629.066H601.47H600.47ZM536.2 478.896C536.39 479.536 536.55 480.176 536.73 480.806C536.57 480.176 536.4 479.536 536.2 478.896ZM662.07 333.896H662.13H662.07ZM58.0699 184.156V188.426H102.74V184.156H58.0699ZM600.47 629.066H601.47H600.47ZM536.2 478.896C536.39 479.536 536.55 480.176 536.73 480.806C536.57 480.176 536.4 479.536 536.2 478.896ZM662.07 333.896H662.13H662.07ZM600.47 629.036H601.47H600.47ZM536.2 478.896C536.39 479.536 536.55 480.176 536.73 480.806C536.57 480.176 536.4 479.536 536.2 478.896Z" fill="#6C63FF"/>
<path d="M554.81 388.147C554.81 388.147 550.87 387.597 550.87 381.857C550.87 376.117 548.05 365.397 548.05 365.397C548.05 365.347 545.61 346.727 542.24 343.767C538.87 340.807 534.54 323.427 534.54 323.427C534.54 323.427 533.8 313.997 532.29 311.967C530.78 309.937 528.74 304.967 525.73 297.877C522.72 290.787 510.17 285.877 510.17 285.877C510.17 285.877 487.48 272.717 481.05 268.427C480.466 268.075 479.919 267.663 479.42 267.197C478.3 265.727 473.42 265.697 473.42 265.697C472.91 262.477 472.42 258.777 472.26 255.427C472.26 255.067 472.26 254.707 472.21 254.347C479.38 250.109 484.78 243.427 487.42 235.527C487.54 235.147 487.64 234.747 487.75 234.367C488.18 234.226 488.575 233.996 488.911 233.693C489.247 233.39 489.515 233.02 489.7 232.607C490.28 231.317 490.29 229.807 491.01 228.607C491.85 227.187 493.45 226.427 494.71 225.357C497.89 222.657 498.71 218.107 498.56 213.967C498.46 210.617 497.92 207.237 498.13 203.907L498.19 203.067C498.25 202.567 498.32 202.067 498.41 201.587C498.9 199.107 499.97 196.767 500.57 194.307C501.17 191.847 501.23 189.077 499.83 186.957C497.78 183.847 493.51 183.227 489.76 182.907C485.51 182.547 481.71 183.017 478.99 179.487C477.717 177.642 476.285 175.913 474.71 174.317C474.15 173.797 468.71 170.477 468.71 170.257C463.401 167.798 457.382 167.337 451.76 168.957C448.94 169.777 446.28 171.117 443.42 171.787C437.25 173.247 430.15 171.667 424.91 175.197C421.99 177.197 420.24 180.377 418.6 183.477C417.267 186.031 415.913 188.581 414.54 191.127C412.33 195.317 410.08 199.577 409.15 204.217C408.954 205.227 408.834 206.25 408.79 207.277V207.327C408.79 207.697 408.79 208.067 408.79 208.437V208.907C408.79 209.257 408.79 209.597 408.85 209.907C408.91 210.217 408.9 210.317 408.93 210.527C408.96 210.737 409.01 211.207 409.07 211.527C409.13 211.847 409.25 212.407 409.37 212.847C409.42 213.037 409.49 213.217 409.55 213.397C409.65 213.737 409.77 214.067 409.9 214.397C409.97 214.567 410.04 214.747 410.12 214.917C410.27 215.267 410.45 215.607 410.63 215.917C410.71 216.057 410.77 216.187 410.85 216.317C411.129 216.783 411.436 217.23 411.77 217.657C413.91 220.327 417.06 222.027 419.39 224.527C419.39 224.627 419.39 224.727 419.39 224.817C419.39 225.097 419.39 225.367 419.39 225.647C419.514 231.223 420.998 236.684 423.713 241.555C426.428 246.426 430.293 250.56 434.97 253.597C434.97 253.977 435.02 254.367 435.04 254.747C435.235 257.716 435.198 260.695 434.93 263.657C434.523 263.178 434.013 262.796 433.438 262.54C432.864 262.284 432.239 262.16 431.61 262.177C431.18 262.156 430.75 262.193 430.33 262.287L430.24 262.217V262.307C428.04 262.847 425.33 265.137 422.74 271.647C422.74 271.647 414.86 280.527 408.86 280.157C402.86 279.787 387.67 289.397 387.67 289.397C387.67 289.397 372.85 299.017 369.67 308.817C367.893 314.375 365.762 319.812 363.29 325.097L344.97 362.847L341.59 392.797C341.59 392.797 343.46 406.117 343.09 408.147C342.72 410.177 350.78 428.487 350.78 428.487C350.78 428.487 377.41 475.277 388.29 477.677L389.07 477.127C389.536 477.371 390.029 477.555 390.54 477.677L392.78 476.097C392.915 477.858 392.858 479.629 392.61 481.377C391.11 485.997 393.17 516.147 395.79 522.057C398.41 527.967 397.48 605.457 397.48 605.457L397.11 612.297C397.11 612.297 397.11 612.517 397.2 612.897L397.11 614.517L397.38 614.657C397.66 616.827 397.569 619.029 397.11 621.167C396.17 624.167 395.79 632.647 395.79 632.647C395.79 632.647 388.3 680.527 391.85 690.147C395.4 699.767 398.42 710.307 398.42 710.307C398.42 710.307 402.17 722.307 398.6 724.357C395.03 726.407 384.88 729.847 386.97 734.847C388.87 739.467 396.08 751.847 397.15 753.657L397.06 754.607L395.59 770.537C395.828 772.641 396.398 774.693 397.28 776.617C398.89 780.087 402.02 783.687 407.97 783.297C408.97 783.227 410.13 783.107 411.25 782.957C422.14 781.497 435.55 776.637 435.55 776.637C434.854 776.195 434.216 775.668 433.65 775.067C433.115 774.549 432.691 773.927 432.404 773.239C432.116 772.552 431.972 771.813 431.98 771.067C432.14 768.167 426.71 754.347 425.36 750.947C425.15 750.457 425.04 750.177 425.04 750.177C425.04 750.177 437.42 737.237 435.36 725.767C435.36 725.767 421.66 717.768 426.17 713.378C430.68 708.988 438.74 696.378 438.74 696.378C438.74 696.378 439.11 649.227 438.74 642.187C438.354 637.301 438.586 632.386 439.43 627.557C439.58 626.827 439.76 626.117 439.95 625.417C446.187 626.349 452.484 626.826 458.79 626.847C461.09 626.847 463.43 626.847 465.79 626.707C465.79 627.374 465.82 628.094 465.88 628.867C466.4 640.547 467.37 661.027 468.16 668.637C469.28 679.547 475.47 708.947 475.47 708.947C475.47 708.947 463.66 716.527 477.53 735.207C477.53 735.207 477.53 741.977 476.61 742.957C475.628 746.161 474.836 749.42 474.24 752.717C473.66 756.237 473.42 759.797 474.36 761.647C476.61 766.067 490.11 765.707 490.11 765.707L490.44 765.647C492.989 765.384 495.564 765.629 498.017 766.369C500.47 767.109 502.752 768.329 504.73 769.957C509.86 774.077 529.33 772.267 539.87 770.957C544 770.437 546.76 769.957 546.76 769.957C546.894 769.49 546.941 769.002 546.9 768.517C546.79 765.927 544.76 760.247 531 755.177C531 755.177 518.06 746.477 518.24 738.897H517.97H516.47C517.56 738.837 518.26 738.897 518.26 738.897C518.26 738.897 513.19 720.397 515.26 718.897C517.33 717.397 511.13 696.897 511.13 696.897C511.13 696.897 507.58 662.497 507.39 660.087C507.398 658.019 507.711 655.964 508.32 653.987L507.39 635.127C507.39 635.127 507.21 628.857 507.39 626.817C507.36 625.047 507.216 623.28 506.96 621.527C506.87 620.827 506.78 620.097 506.68 619.377C511.53 618.147 514.68 617.007 514.68 617.007L514.12 551.357C518.24 543.357 519 525.807 518.98 513.357C518.98 505.357 518.62 499.437 518.62 499.437L524.25 490.247C524.25 490.247 525.55 479.247 523.49 476.837C522.58 475.747 522.99 474.617 523.74 473.687C524.13 473.379 524.541 473.098 524.97 472.847C524.97 472.847 524.91 472.757 524.84 472.627C525.233 472.299 525.651 472.001 526.09 471.737C526.09 471.737 524.09 468.637 525.88 467.327C527.56 468.467 529.06 469.327 530.2 470.027C530.12 470.757 530.04 471.177 530.04 471.177L530.52 470.177C531.62 470.797 532.29 471.177 532.29 471.177C532.29 471.177 541.11 453.607 540.92 451.017C540.73 448.427 546.92 437.517 546.92 437.517C546.92 437.517 547.67 431.787 551.05 429.387C554.43 426.987 553.67 409.597 553.67 409.597C553.67 409.597 554.61 400.537 556.86 396.837C559.11 393.137 554.81 388.147 554.81 388.147ZM386.05 380.437L386.22 384.627C385.22 383.017 384.5 381.857 384.5 381.857L386.05 380.437Z" fill="url(#paint0_linear)"/>
<path d="M532.77 463.587L530.61 472.787C530.61 472.787 513.31 463.957 510.19 452.737C507.07 441.517 515.41 437.257 515.41 437.257L531.53 444.087L532.77 463.587Z" fill="white"/>
<path opacity="0.1" d="M532.77 463.587L530.61 472.787C530.61 472.787 513.31 463.957 510.19 452.737C507.07 441.517 515.41 437.257 515.41 437.257L531.53 444.087L532.77 463.587Z" fill="black"/>
<path d="M435.68 776.697C435.68 776.697 419.68 782.577 408.68 783.317C402.84 783.707 399.77 780.127 398.19 776.677C397.327 774.76 396.77 772.718 396.54 770.628L397.97 754.777L398.73 746.337L422.1 740.267L425.41 750.387L425.72 751.157C427.05 754.537 432.38 768.287 432.22 771.157C432.213 771.892 432.355 772.621 432.637 773.3C432.919 773.978 433.335 774.593 433.86 775.107C434.397 775.713 435.008 776.247 435.68 776.697Z" fill="white"/>
<path d="M544.97 768.638C545.01 769.119 544.963 769.603 544.83 770.068C544.83 770.068 510.61 775.778 503.61 770.068C501.636 768.399 499.336 767.162 496.856 766.436C494.376 765.709 491.772 765.509 489.21 765.848C489.21 765.848 475.97 766.208 473.76 761.848C472.84 760.018 473.08 756.468 473.65 752.968C474.231 749.688 475.006 746.446 475.97 743.258L476.5 742.838L479.65 740.308L516.53 739.218H516.81C516.63 746.758 529.33 755.408 529.33 755.408C542.82 760.408 544.81 766.058 544.97 768.638Z" fill="white"/>
<path opacity="0.1" d="M544.97 768.638C545.005 769.119 544.954 769.603 544.82 770.068C544.82 770.068 510.61 775.778 503.61 770.068C501.638 768.401 499.339 767.164 496.861 766.438C494.383 765.711 491.78 765.51 489.22 765.848C489.22 765.848 475.97 766.208 473.77 761.848C472.85 760.008 473.08 756.468 473.65 752.968C478.75 753.478 486.8 754.748 489.96 757.778C494.74 762.388 502.84 766.988 507.81 767.348C511.7 767.598 534.97 768.338 544.97 768.638Z" fill="black"/>
<path opacity="0.1" d="M435.68 776.697C435.68 776.697 419.68 782.577 408.68 783.317C402.84 783.707 399.77 780.127 398.2 776.667C402.27 778.037 407.92 779.477 410.89 778.157C414.41 776.597 426.89 775.587 433.89 775.157C434.423 775.741 435.024 776.258 435.68 776.697Z" fill="black"/>
<path d="M459.42 302.847C446.22 297.717 429.24 280.767 433.48 272.847C434.422 270.849 434.981 268.692 435.13 266.487C435.403 263.495 435.443 260.486 435.25 257.487C434.953 252.577 434.362 247.688 433.48 242.847C433.48 242.847 474.69 243.777 472.29 249.847C471.59 251.627 471.48 254.717 471.67 258.177C471.86 261.637 472.36 265.547 472.88 268.857C473.6 273.397 474.32 276.857 474.32 276.857C474.32 276.857 471.8 280.387 470.32 280.577C468.84 280.767 478.36 310.157 459.42 302.847Z" fill="#CF6F80"/>
<path opacity="0.1" d="M425.69 751.157L425.38 751.497C413.06 736.597 398.16 755.167 398.16 755.167L397.94 754.777L398.7 746.337L422.07 740.267L425.38 750.387L425.69 751.157Z" fill="black"/>
<path opacity="0.1" d="M516.82 740.267C516.82 740.267 507.82 740.077 503.02 744.317C498.22 748.557 475.02 745.237 476.02 744.317C476.316 743.862 476.495 743.339 476.54 742.797L479.69 740.267L516.57 739.177C516.71 739.847 516.82 740.267 516.82 740.267Z" fill="black"/>
<path d="M441.02 623.257C440.35 624.915 439.841 626.633 439.5 628.387C438.666 633.193 438.434 638.084 438.81 642.947C439.18 649.947 438.81 696.857 438.81 696.857C438.81 696.857 430.9 709.367 426.49 713.777C422.08 718.187 435.49 726.107 435.49 726.107C437.49 737.507 425.37 750.387 425.37 750.387C413.05 735.487 398.15 754.067 398.15 754.067C398.15 754.067 390.05 740.067 388.03 735.067C386.01 730.067 395.94 726.607 399.43 724.577C402.92 722.547 399.26 710.577 399.26 710.577C399.26 710.577 396.31 700.087 392.81 690.517C389.31 680.947 396.67 633.307 396.67 633.307C396.67 633.307 397.05 624.847 397.96 621.897C398.419 619.769 398.511 617.577 398.23 615.417C398.17 614.687 398.1 614.077 398.05 613.667C398 613.257 397.96 613.067 397.96 613.067L398.1 612.827L403.1 603.507C403.1 603.507 443.42 617.387 441.02 623.257Z" fill="#6C63FF"/>
<path d="M516.82 739.167C516.82 739.167 507.82 738.977 503.02 743.167C498.22 747.357 475.02 744.087 476.02 743.167C477.02 742.247 476.94 735.438 476.94 735.438C463.33 716.858 474.94 709.317 474.94 709.317C474.94 709.317 468.86 680.067 467.76 669.217C466.99 661.637 466.04 641.267 465.53 629.637C465.31 624.637 465.18 621.197 465.18 621.197L476.3 618.957L477.73 618.667L504.55 613.287C504.55 613.287 505.29 618.288 505.79 622.378C506.039 624.124 506.18 625.884 506.21 627.647C506.03 629.647 506.21 635.907 506.21 635.907L507.12 654.677C506.525 656.646 506.219 658.691 506.21 660.747C506.39 663.137 509.88 697.357 509.88 697.357C509.88 697.357 515.95 717.777 513.88 719.247C511.81 720.717 516.82 739.167 516.82 739.167Z" fill="#6C63FF"/>
<path opacity="0.1" d="M472.29 249.847C471.59 251.627 471.48 254.717 471.67 258.177C466.15 261.501 459.804 263.201 453.362 263.081C446.92 262.96 440.642 261.025 435.25 257.497C434.953 252.583 434.362 247.691 433.48 242.847C433.48 242.847 474.69 243.757 472.29 249.847Z" fill="black"/>
<path d="M488.22 227.747C488.228 231.351 487.661 234.933 486.54 238.357C484.035 246.031 478.897 252.572 472.036 256.824C465.174 261.076 457.03 262.766 449.043 261.594C441.057 260.423 433.741 256.465 428.39 250.422C423.038 244.378 419.996 236.637 419.8 228.567C419.8 228.287 419.8 228.027 419.8 227.747C419.722 223.205 420.55 218.693 422.235 214.473C423.919 210.254 426.427 206.413 429.612 203.173C432.797 199.933 436.595 197.36 440.785 195.604C444.974 193.847 449.472 192.943 454.015 192.943C458.558 192.943 463.056 193.847 467.245 195.604C471.435 197.36 475.233 199.933 478.418 203.173C481.603 206.413 484.111 210.254 485.795 214.473C487.48 218.693 488.308 223.205 488.23 227.747H488.22Z" fill="#CF6F80"/>
<path opacity="0.1" d="M459.42 302.847C446.22 297.717 429.24 280.767 433.48 272.847C434.422 270.849 434.981 268.692 435.13 266.487L453.2 281.337L464.38 290.507L472.88 268.867C473.6 273.407 474.32 276.867 474.32 276.867C474.32 276.867 471.8 280.397 470.32 280.587C468.84 280.777 478.36 310.157 459.42 302.847Z" fill="black"/>
<path d="M506.15 368.477L491.06 621.977L471.38 623.267L420.42 476.277L428.78 301.767L430.54 264.897L453.2 283.507L464.39 292.677L473.14 270.407L489.41 284.587L506.15 368.477Z" fill="#6C63FF"/>
<path opacity="0.1" d="M441.02 623.257C440.35 624.915 439.841 626.633 439.5 628.387C425.18 626.176 411.272 621.832 398.24 615.497L397.97 615.357L398.06 613.747L398.11 612.907L403.11 603.587C403.11 603.587 443.42 617.387 441.02 623.257Z" fill="black"/>
<path opacity="0.1" d="M476.53 628.427C472.869 629.05 469.177 629.471 465.47 629.688C465.25 624.688 465.12 621.247 465.12 621.247L476.24 619.007L476.53 628.427Z" fill="black"/>
<path opacity="0.1" d="M505.73 622.427C498.62 624.277 487.64 626.357 477.81 625.057L477.67 618.717L504.49 613.337C504.49 613.337 505.23 618.287 505.73 622.427Z" fill="black"/>
<path opacity="0.1" d="M477.63 626.217C436.63 633.217 399.08 613.147 399.08 613.147L399.44 606.347C399.44 606.347 400.37 529.257 397.79 523.347C395.21 517.437 393.2 487.467 394.66 482.867C396.12 478.267 389.33 409.287 389.33 409.287L388.23 381.287L347.97 364.977L365.97 327.457C368.401 322.197 370.492 316.786 372.23 311.257C375.36 301.517 389.89 291.947 389.89 291.947C389.89 291.947 404.79 282.387 410.68 282.747C416.57 283.107 424.29 274.287 424.29 274.287C429.99 259.757 435.15 266.337 435.15 266.337C435.15 267.027 435.15 266.337 434.87 268.487C432.87 284.437 467.21 334.837 467.7 335.727L470.97 415.387L474.28 516.197L477.63 626.217Z" fill="black"/>
<path d="M476.53 626.217C435.53 633.217 397.97 613.147 397.97 613.147L398.34 606.348C398.34 606.348 399.27 529.258 396.68 523.348C394.09 517.438 392.09 487.468 393.56 482.868C395.03 478.268 388.23 409.288 388.23 409.288L387.12 381.288L346.84 364.918L364.84 327.397C367.266 322.135 369.357 316.724 371.1 311.198C374.22 301.458 388.76 291.888 388.76 291.888C388.76 291.888 403.66 282.328 409.54 282.688C415.42 283.048 423.15 274.228 423.15 274.228C428.86 259.698 435.15 266.278 435.15 266.278C435.15 266.968 434.55 267.277 434.87 268.427C439.27 283.897 466.11 334.778 466.6 335.668L469.91 415.328L473.22 516.137L476.53 626.217Z" fill="white"/>
<path opacity="0.1" d="M465.48 337.937C461.07 336.097 437.71 309.427 437.71 309.427V303.357C436.86 301.357 431.81 302.577 427.71 303.977L429.47 267.107L431.47 268.767C435.85 284.227 464.97 337.047 465.48 337.937Z" fill="black"/>
<path d="M466.59 335.727C462.17 333.887 438.81 307.217 438.81 307.217V301.147C437.96 299.147 432.91 300.367 428.81 301.767L430.58 264.897L432.58 266.557C436.97 282.017 466.1 334.847 466.59 335.727Z" fill="white"/>
<path opacity="0.1" d="M399.08 468.737C399.63 468.737 427.59 465.797 427.59 465.797C427.59 465.797 444.52 499.087 443.41 507.188C442.3 515.288 440.29 522.457 433.48 521.188C426.67 519.918 396.83 522.188 396.83 522.188L399.08 468.737Z" fill="black"/>
<path d="M397.97 466.527C398.52 466.527 426.48 463.587 426.48 463.587C426.48 463.587 443.4 496.887 442.3 504.977C441.2 513.067 439.17 520.247 432.37 518.977C425.57 517.707 395.72 519.977 395.72 519.977L397.97 466.527Z" fill="white"/>
<path d="M419.04 450.897C419.04 450.897 444.7 464.687 445.25 468.897C445.8 473.107 432.19 467.057 429.25 466.327C427.315 465.861 425.345 465.554 423.36 465.407L403.75 465.938L419.04 450.897Z" fill="#CF6F80"/>
<path opacity="0.1" d="M458.32 339.657C459.811 339.657 461.02 338.449 461.02 336.957C461.02 335.466 459.811 334.257 458.32 334.257C456.829 334.257 455.62 335.466 455.62 336.957C455.62 338.449 456.829 339.657 458.32 339.657Z" fill="black"/>
<path d="M458.32 338.557C459.811 338.557 461.02 337.349 461.02 335.857C461.02 334.366 459.811 333.157 458.32 333.157C456.829 333.157 455.62 334.366 455.62 335.857C455.62 337.349 456.829 338.557 458.32 338.557Z" fill="#3F3D56"/>
<path opacity="0.1" d="M463.29 456.537C464.781 456.537 465.99 455.329 465.99 453.837C465.99 452.346 464.781 451.137 463.29 451.137C461.799 451.137 460.59 452.346 460.59 453.837C460.59 455.329 461.799 456.537 463.29 456.537Z" fill="black"/>
<path d="M463.29 455.427C464.781 455.427 465.99 454.219 465.99 452.727C465.99 451.236 464.781 450.027 463.29 450.027C461.799 450.027 460.59 451.236 460.59 452.727C460.59 454.219 461.799 455.427 463.29 455.427Z" fill="#3F3D56"/>
<path opacity="0.1" d="M461.01 398.098C462.501 398.098 463.71 396.889 463.71 395.398C463.71 393.906 462.501 392.698 461.01 392.698C459.519 392.698 458.31 393.906 458.31 395.398C458.31 396.889 459.519 398.098 461.01 398.098Z" fill="black"/>
<path d="M461.01 396.997C462.501 396.997 463.71 395.789 463.71 394.297C463.71 392.806 462.501 391.597 461.01 391.597C459.519 391.597 458.31 392.806 458.31 394.297C458.31 395.789 459.519 396.997 461.01 396.997Z" fill="#3F3D56"/>
<path d="M523.25 464.847C523.25 464.847 525.09 467.607 523.25 468.897C521.41 470.187 523.43 473.308 523.43 473.308C523.43 473.308 518.84 475.997 520.86 478.417C522.88 480.837 521.6 491.767 521.6 491.767L516.08 500.907C516.08 500.907 516.41 506.797 516.43 514.757C516.43 527.177 515.7 544.637 511.66 552.597L512.22 617.907C512.22 617.907 492.89 624.967 476.71 622.817L474.31 518.017C474.31 518.017 477.81 458.587 479.1 447.187C479.855 441.269 480.162 435.302 480.02 429.337C480.02 429.337 479.47 411.497 477.62 403.217C477.62 403.217 475.62 367.347 475.42 357.417C475.33 352.667 475.58 338.807 475.86 325.627C476.17 311.217 476.52 297.627 476.52 297.627L472.87 268.747C472.87 268.747 476.52 268.377 477.62 269.847C478.113 270.308 478.649 270.72 479.22 271.077C485.52 275.337 507.78 288.437 507.78 288.437C507.78 288.437 520.1 293.337 523.05 300.357C526 307.377 528.05 312.357 529.48 314.357C530.91 316.357 531.69 325.757 531.69 325.757C531.69 325.757 535.93 343.057 539.24 345.987C542.55 348.917 544.97 367.557 544.97 367.557L515.72 390.557C515.72 390.557 513.15 428.818 512.6 430.298C512.05 431.778 523.25 464.847 523.25 464.847Z" fill="white"/>
<path d="M524.36 464.847C524.36 464.847 526.19 467.607 524.36 468.897C522.53 470.187 524.53 473.307 524.53 473.307C524.53 473.307 519.97 476.027 521.97 478.447C523.97 480.867 522.71 491.797 522.71 491.797L517.19 500.937C517.19 500.937 517.52 506.827 517.55 514.787C517.55 527.207 516.82 544.667 512.78 552.627L513.33 617.937C513.33 617.937 493.97 624.997 477.81 622.847L475.42 518.047C475.42 518.047 478.92 458.617 480.21 447.217C480.966 441.299 481.27 435.332 481.12 429.367C481.12 429.367 480.57 411.527 478.73 403.247C478.73 403.247 476.73 367.377 476.52 357.447C476.43 352.697 476.69 338.837 476.96 325.657C477.27 311.247 477.62 297.657 477.62 297.657L472.8 268.387C472.8 268.387 477.62 268.387 478.73 269.877C479.218 270.343 479.754 270.755 480.33 271.107C486.63 275.367 508.9 288.467 508.9 288.467C508.9 288.467 521.21 293.367 524.16 300.387C527.11 307.407 529.16 312.387 530.6 314.387C532.04 316.387 532.8 325.787 532.8 325.787C532.8 325.787 537.04 343.087 540.35 346.017C543.66 348.947 546.05 367.547 546.05 367.547L516.8 390.547C516.8 390.547 514.23 428.807 513.67 430.287C513.11 431.767 524.36 464.847 524.36 464.847Z" fill="white"/>
<path opacity="0.1" d="M489.33 306.147L491.97 313.848L478.07 327.848C478.38 313.448 478.73 299.848 478.73 299.848L473.91 270.578C473.91 270.578 478.73 270.578 479.84 272.068C480.327 272.532 480.863 272.941 481.44 273.288L493.26 307.388L489.33 306.147Z" fill="black"/>
<path d="M488.22 303.937L490.87 311.637L476.97 325.637C477.28 311.227 477.63 297.637 477.63 297.637L472.8 268.367C472.8 268.367 477.63 268.367 478.73 269.857C479.221 270.32 479.757 270.732 480.33 271.087L492.16 305.177L488.22 303.937Z" fill="white"/>
<path opacity="0.1" d="M488.22 227.747C488.228 231.351 487.661 234.933 486.54 238.357C486.351 238.387 486.158 238.378 485.973 238.332C485.787 238.285 485.613 238.202 485.46 238.087C485.2 229.087 480.77 220.637 475.32 213.447C473.79 211.277 471.935 209.354 469.82 207.747C467.682 206.142 465.022 205.389 462.36 205.637C459.36 206.047 456.71 208.087 453.68 208.347C449.68 208.677 446.1 205.907 442.13 205.767C440.516 205.783 438.924 206.142 437.46 206.822C435.996 207.501 434.694 208.485 433.64 209.707C431.554 212.175 430.005 215.049 429.09 218.147C427.518 222.846 426.661 227.754 426.55 232.707C426.5 235.507 426.23 239.017 423.63 240.037C423.826 237.978 423.592 235.901 422.943 233.937C422.294 231.973 421.244 230.165 419.86 228.627L419.8 228.567C419.8 228.287 419.8 228.027 419.8 227.747C419.722 223.205 420.55 218.693 422.235 214.473C423.919 210.254 426.427 206.413 429.612 203.173C432.797 199.933 436.595 197.36 440.785 195.604C444.974 193.847 449.472 192.943 454.015 192.943C458.558 192.943 463.056 193.847 467.245 195.604C471.435 197.36 475.233 199.933 478.418 203.173C481.603 206.413 484.111 210.254 485.795 214.473C487.48 218.693 488.308 223.205 488.23 227.747H488.22Z" fill="black"/>
<path d="M468.18 173.417C462.984 170.973 457.073 170.511 451.56 172.117C448.79 172.937 446.18 174.267 443.37 174.937C437.37 176.387 430.37 174.817 425.22 178.327C422.36 180.327 420.64 183.487 419.04 186.557L415.04 194.177C412.86 198.347 410.66 202.587 409.75 207.177C408.84 211.767 409.39 216.907 412.3 220.597C414.42 223.287 417.55 224.977 419.85 227.507C421.228 229.046 422.273 230.853 422.92 232.815C423.567 234.777 423.802 236.851 423.61 238.907C426.22 237.907 426.47 234.387 426.53 231.587C426.641 226.634 427.498 221.726 429.07 217.027C429.983 213.928 431.532 211.053 433.62 208.587C434.675 207.366 435.977 206.383 437.441 205.703C438.905 205.024 440.496 204.664 442.11 204.647C446.11 204.787 449.7 207.547 453.66 207.217C456.66 206.967 459.32 204.917 462.34 204.517C465.003 204.266 467.664 205.018 469.8 206.627C471.914 208.232 473.766 210.155 475.29 212.327C480.75 219.517 485.18 227.947 485.44 236.967C486.57 237.797 488.2 236.717 488.76 235.437C489.32 234.157 489.34 232.657 490.05 231.437C490.87 230.027 492.44 229.277 493.67 228.217C496.79 225.527 497.57 220.997 497.45 216.887C497.33 212.777 496.53 208.607 497.31 204.567C497.78 202.087 498.84 199.767 499.42 197.317C500 194.867 500.07 192.117 498.7 190.007C496.7 186.907 492.49 186.297 488.82 186.007C484.65 185.647 480.92 186.107 478.26 182.597C477.011 180.766 475.606 179.046 474.06 177.457C473.53 176.937 468.18 173.637 468.18 173.417Z" fill="#512E4E"/>
<path opacity="0.1" d="M359.49 384.297L349.04 364.977L345.73 394.787C345.73 394.787 347.57 408.027 347.2 410.057C346.83 412.087 354.74 430.287 354.74 430.287C354.74 430.287 380.87 476.827 391.54 479.227L427.59 453.467L418.03 441.327C418.03 441.327 414.72 440.037 413.89 441.327C413.89 441.327 396.14 410.787 394.3 408.577C392.46 406.367 392.82 401.957 392.82 401.957C392.82 401.957 390.06 399.017 390.98 396.257C391.9 393.497 385.65 383.927 385.65 383.927L391.35 378.597L359.49 384.297Z" fill="black"/>
<path d="M349.59 362.777L346.83 364.977L343.52 394.787C343.52 394.787 345.36 408.027 344.99 410.057C344.62 412.087 352.54 430.287 352.54 430.287C352.54 430.287 378.66 476.827 389.33 479.227L425.39 453.467L415.82 441.327C415.82 441.327 412.51 440.037 411.68 441.327C411.68 441.327 393.93 410.787 392.09 408.577C390.25 406.367 390.62 401.957 390.62 401.957C390.62 401.957 387.86 399.017 388.78 396.257C389.7 393.497 383.44 383.927 383.44 383.927L389.14 378.597L349.59 362.777Z" fill="white"/>
<path opacity="0.1" d="M520.86 479.557C522.86 481.987 521.6 492.897 521.6 492.897L516.08 502.037C516.08 502.037 516.41 507.937 516.43 515.887L507.15 518.787C506.311 519.049 505.422 519.107 504.557 518.955C503.691 518.804 502.875 518.447 502.175 517.916C501.475 517.385 500.913 516.694 500.534 515.901C500.156 515.108 499.973 514.236 500 513.357L501.6 461.747L523.25 470.027C521.41 471.307 523.43 474.447 523.43 474.447C523.43 474.447 518.84 477.127 520.86 479.557Z" fill="black"/>
<path d="M521.97 478.447C523.97 480.877 522.71 491.797 522.71 491.797L517.19 500.938C517.19 500.938 517.52 506.827 517.55 514.787L508.1 517.737C507.279 517.993 506.408 518.048 505.561 517.899C504.714 517.75 503.915 517.4 503.23 516.88C502.545 516.36 501.995 515.683 501.624 514.907C501.254 514.131 501.074 513.277 501.1 512.417L502.71 460.647L524.37 468.927C522.52 470.207 524.54 473.337 524.54 473.337C524.54 473.337 519.97 476.027 521.97 478.447Z" fill="white"/>
<path d="M529.14 453.848C529.14 453.848 527.67 463.238 523.99 463.788C520.31 464.338 518.66 478.977 514.99 478.457C511.32 477.937 513.75 464.848 513.88 462.308C514.01 459.768 509.88 449.248 512.97 446.858C516.06 444.468 525.84 446.858 525.84 446.858L529.14 453.848Z" fill="#CF6F80"/>
<path opacity="0.1" d="M536.97 381.537L543.91 367.537C543.91 367.537 546.67 378.207 546.67 383.907C546.67 389.607 550.53 390.167 550.53 390.167C550.53 390.167 554.76 395.167 552.53 398.807C550.3 402.447 549.4 411.507 549.4 411.507C549.4 411.507 550.13 428.797 546.82 431.187C543.51 433.577 542.82 439.287 542.82 439.287C542.82 439.287 536.74 450.137 536.93 452.717C537.12 455.297 528.47 472.767 528.47 472.767C528.47 472.767 532.7 451.057 508.05 441.677C508.05 441.677 507.86 434.307 509.7 432.287C511.54 430.267 514.41 429.347 512.61 419.137C510.81 408.927 512.09 396.727 512.09 394.277C512.09 391.827 517.61 376.547 517.61 376.547L536.97 381.537Z" fill="black"/>
<path d="M539.97 365.537L546.03 367.537C546.03 367.537 548.8 378.207 548.8 383.907C548.8 389.607 552.66 390.167 552.66 390.167C552.66 390.167 556.89 395.167 554.66 398.807C552.43 402.447 551.54 411.507 551.54 411.507C551.54 411.507 552.27 428.797 548.96 431.187C545.65 433.577 544.91 439.287 544.91 439.287C544.91 439.287 538.84 450.137 539.03 452.717C539.22 455.297 530.56 472.767 530.56 472.767C530.56 472.767 534.8 451.057 510.14 441.677C510.14 441.677 509.96 434.307 511.8 432.287C513.64 430.267 516.51 429.347 514.71 419.137C512.91 408.927 514.19 396.727 514.19 394.277C514.19 391.827 519.71 376.547 519.71 376.547L539.97 365.537Z" fill="white"/>
<path opacity="0.1" d="M406.12 728.407C406.12 728.407 415.78 722.337 422.12 726.747C428.46 731.157 406.12 728.407 406.12 728.407Z" fill="black"/>
<path opacity="0.1" d="M481.18 709.637C481.18 709.637 489.73 708.537 496.91 716.267C504.09 723.997 481.18 709.637 481.18 709.637Z" fill="black"/>
<g opacity="0.1">
<path opacity="0.1" d="M493.69 226.027C492.46 227.087 490.88 227.847 490.06 229.257C489.36 230.467 489.34 231.957 488.78 233.257C488.22 234.557 486.59 235.617 485.46 234.797C485.2 225.797 480.76 217.347 475.31 210.147C473.786 207.975 471.934 206.052 469.82 204.447C467.68 202.838 465.016 202.086 462.35 202.337C459.35 202.747 456.71 204.787 453.68 205.037C449.68 205.377 446.09 202.607 442.12 202.467C440.507 202.484 438.915 202.844 437.453 203.526C435.99 204.207 434.69 205.193 433.64 206.417C431.552 208.88 430.003 211.751 429.09 214.847C427.519 219.546 426.662 224.454 426.55 229.407C426.49 232.197 426.23 235.677 423.65 236.717C423.71 237.456 423.71 238.199 423.65 238.937C426.25 237.937 426.51 234.417 426.57 231.617C426.681 226.664 427.538 221.756 429.11 217.057C430.023 213.958 431.572 211.083 433.66 208.617C434.713 207.396 436.013 206.413 437.475 205.734C438.938 205.054 440.528 204.694 442.14 204.677C446.14 204.817 449.74 207.577 453.7 207.247C456.7 206.997 459.36 204.947 462.37 204.547C465.036 204.296 467.7 205.048 469.84 206.657C471.954 208.262 473.806 210.185 475.33 212.357C480.78 219.547 485.22 227.977 485.48 236.997C486.61 237.827 488.24 236.747 488.8 235.467C489.36 234.187 489.38 232.687 490.08 231.467C490.9 230.057 492.48 229.307 493.71 228.247C496.83 225.557 497.61 221.027 497.49 216.917C497.49 216.787 497.49 216.657 497.49 216.537C497.3 220.097 496.35 223.727 493.69 226.027Z" fill="black"/>
<path opacity="0.1" d="M419.87 225.317C417.57 222.787 414.43 221.097 412.32 218.417C410.543 216.045 409.529 213.189 409.41 210.227C409.095 213.928 410.129 217.618 412.32 220.617C414.43 223.307 417.57 224.997 419.87 227.527C422.078 230.002 423.404 233.139 423.64 236.447C423.793 234.434 423.538 232.41 422.89 230.498C422.242 228.585 421.215 226.823 419.87 225.317Z" fill="black"/>
<path opacity="0.1" d="M499.44 195.127C498.85 197.577 497.8 199.907 497.32 202.377C497.036 204.028 496.932 205.704 497.01 207.377C497.043 206.424 497.147 205.475 497.32 204.537C497.8 202.057 498.85 199.737 499.44 197.287C499.784 195.936 499.895 194.536 499.77 193.147C499.708 193.815 499.598 194.476 499.44 195.127Z" fill="black"/>
</g>
<path opacity="0.1" d="M460.59 790.778C514.405 790.778 558.03 783.771 558.03 775.128C558.03 766.484 514.405 759.478 460.59 759.478C406.775 759.478 363.15 766.484 363.15 775.128C363.15 783.771 406.775 790.778 460.59 790.778Z" fill="#6C63FF"/>
<path d="M907.26 471.726C907.26 471.726 890.75 389.586 897.07 379.366C897.07 379.366 897.3 369.866 896.92 357.756C896.92 357.296 896.92 356.836 896.92 356.366C898.032 357.108 899.191 357.776 900.39 358.366C906.213 361.358 912.898 362.221 919.29 360.806L914.29 355.236C913.09 353.906 911.84 352.466 911.58 350.706C911.32 348.946 912.04 347.376 912.66 345.806C917.41 333.806 917.66 318.716 908.51 309.556C900.78 301.856 898.9 291.916 890.51 284.886C884.38 279.736 881.01 272.186 877.83 264.886C875.14 258.716 872.43 252.496 870.89 245.956C869.69 240.846 869.21 235.556 867.56 230.566C865.91 225.576 862.82 220.726 857.99 218.496C856.27 217.706 854.36 217.256 852.79 216.206C850.73 214.816 849.49 212.556 848 210.576C840.43 200.576 815.08 206.466 803.08 210.526C799.818 211.549 796.797 213.223 794.2 215.446L794.31 215.266C794.4 215.116 794.51 214.966 794.61 214.816C793.296 215.878 792.162 217.145 791.25 218.566C789.5 221.336 788.77 224.566 787.31 227.566C785.55 231.116 775.76 241.026 779.97 245.016C780.265 245.284 780.603 245.501 780.97 245.656C782.55 246.314 784.291 246.488 785.97 246.156L785.79 246.586C784.352 250.107 783.615 253.874 783.62 257.676C783.62 274.106 797.17 287.426 813.9 287.426C817.045 287.429 820.172 286.947 823.17 285.996C823.24 286.376 823.3 286.756 823.37 287.136C823.37 287.286 823.42 287.436 823.44 287.586L822.91 288.326C822.883 288.281 822.853 288.237 822.82 288.196L807.12 310.136C804.72 311.826 790.9 321.826 790.12 329.326C789.3 337.536 788.48 347.146 788.48 347.146L788.37 349.206C787.684 349.78 786.881 350.197 786.018 350.43C785.155 350.663 784.251 350.706 783.37 350.556C778.47 349.756 778.47 368.556 778.47 368.556C778.47 368.556 775.21 371.556 772.97 368.956C770.73 366.356 764.81 375.166 764.81 375.166L727.71 376.766L726.86 376.816L724.86 370.626C724.645 369.973 724.181 369.432 723.568 369.119C722.956 368.806 722.245 368.748 721.59 368.956C721.435 369.007 721.285 369.071 721.14 369.146L721 369.226L720.74 369.406L720.61 369.526C720.538 369.591 720.471 369.662 720.41 369.736L720.29 369.876L720.23 369.936C719.999 370.256 719.846 370.625 719.784 371.014C719.721 371.403 719.751 371.801 719.87 372.176L721.59 377.486C714.43 378.926 707.11 382.986 713.08 394.166L682.82 388.576L692.61 396.796L743.15 407.226C742.48 408.426 742.92 410.166 745.01 412.616C754.01 423.186 770.41 426.056 777.01 426.796C778.753 430.695 780.93 434.385 783.5 437.796L782.93 448.326C782.93 448.326 766.22 528.586 763.16 532.656C764.705 530.906 766.119 529.044 767.39 527.086C762.54 543.576 755.76 566.146 753.98 569.526C751.12 574.926 748.47 596.776 751.73 598.176C752.73 598.606 755.59 598.396 759.67 598.086V599.896L759.49 668.486C759.49 668.486 760.31 710.556 758.06 714.566C755.81 718.576 755.21 726.986 755.21 726.986C755.21 726.986 746.21 743.576 739.08 750.246C739.031 750.298 738.978 750.345 738.92 750.386L738.7 748.826C738.7 748.826 730.13 759.646 711.17 759.036C711.17 759.036 699.76 766.456 716.68 766.856C733.6 767.256 755.21 766.256 755.21 766.256C755.21 766.256 770.3 743.256 782.94 746.256V763.686H786.81V745.976C788.605 744.795 790.141 743.261 791.325 741.468C792.509 739.675 793.317 737.661 793.7 735.546C794.031 733.367 793.789 731.139 792.996 729.082C792.203 727.025 790.888 725.21 789.18 723.816C788.413 723.123 787.797 722.278 787.372 721.335C786.947 720.392 786.721 719.371 786.71 718.336L786.57 718.456C786.57 718.106 786.48 717.746 786.44 717.376C785.33 708.376 783.94 689.806 788.85 676.066C795.58 657.226 797.62 630.986 792.72 615.366C791.139 610.373 789.84 605.295 788.83 600.156C788.71 599.506 788.6 598.886 788.5 598.306C791.849 598.759 795.166 599.428 798.43 600.306C809.78 603.436 834.61 604.016 855.81 603.846C855.86 604.426 855.92 605.036 855.99 605.646C856.368 609.886 857.158 614.08 858.35 618.166C861.01 626.166 862.23 661.436 862.23 661.436C862.23 661.436 865.66 690.436 863.79 702.236C862.79 708.796 861.79 715.386 861.22 722.006V722.136C861.22 722.136 855.6 738.136 851.49 746.826C851.39 747.046 851.28 747.266 851.18 747.476C850.084 747.576 849.006 747.815 847.97 748.186C847.97 748.186 842.46 759.186 836.97 761.006C831.48 762.826 833.3 768.816 845.73 766.616C858.16 764.416 876.93 762.616 876.93 762.616L877.74 751.396L881.56 746.616L880.56 757.806L884.63 757.006L884.09 743.396L890.34 735.576C890.34 735.576 897.89 728.856 886.67 715.636V715.926C886.55 715.736 886.44 715.536 886.31 715.346V715.286C884.45 712.406 882.97 707.036 885.68 697.506C890.58 680.286 893.43 664.656 893.43 664.656C893.43 664.656 904.37 622.786 891.22 602.976H891.8C890.452 600.189 889.5 597.227 888.97 594.176C888.903 593.816 888.843 593.446 888.79 593.066C898.52 592.506 908.07 590.746 915.86 586.946C915.83 586.906 911.14 487.546 907.26 471.726ZM783.73 402.426V402.626L781.73 402.726L783.73 402.426ZM776.87 403.376C776.541 403.449 776.233 403.596 775.97 403.806C775.11 405.023 774.57 406.436 774.4 407.916L771.28 407.216C771.28 407.216 769.09 406.746 765.94 406.216L764.45 404.716C768.55 404.376 772.81 403.876 776.87 403.376Z" fill="url(#paint1_linear)"/>
<path d="M880.1 743.536L878.91 757.706L882.9 756.906L882.3 741.536L880.1 743.536Z" fill="#1D2366"/>
<path d="M789.07 676.256C784.26 689.956 785.62 708.446 786.7 717.426C787.1 720.746 787.47 722.766 787.47 722.766C787.47 722.766 780.28 739.146 779.68 739.766C779.08 740.386 758.52 752.936 758.52 752.936L744.15 761.326C744.15 761.326 729.57 754.936 736.56 752.736C737.988 752.163 739.275 751.286 740.33 750.166C747.33 743.516 756.12 726.986 756.12 726.986C756.12 726.986 756.72 718.596 758.92 714.606C761.12 710.616 760.32 668.686 760.32 668.686L760.49 600.336V591.426L787.84 591.626C788.013 594.651 788.407 597.659 789.02 600.626C790.002 605.748 791.274 610.809 792.83 615.786C797.65 631.376 795.65 657.486 789.07 676.256Z" fill="#FFB0B1"/>
<path opacity="0.1" d="M787.47 722.766C787.47 722.766 780.28 739.146 779.68 739.766C779.08 740.386 758.52 752.936 758.52 752.936L744.15 761.326C744.15 761.326 729.57 754.936 736.56 752.736C737.988 752.163 739.275 751.286 740.33 750.166L740.95 754.536L745.74 754.336L786.74 717.446C787.1 720.746 787.47 722.766 787.47 722.766Z" fill="black"/>
<path d="M786.97 718.376L745.74 755.516L740.95 755.716L739.95 748.716C739.95 748.716 731.57 759.496 712.95 758.896C712.95 758.896 701.77 766.286 718.34 766.686C734.91 767.086 756.07 766.086 756.07 766.086C756.07 766.086 770.85 743.086 783.22 746.086V763.456H787.02V745.926C788.787 744.737 790.295 743.203 791.453 741.415C792.611 739.628 793.396 737.625 793.76 735.526C794.089 733.365 793.856 731.155 793.084 729.109C792.311 727.064 791.026 725.251 789.35 723.846C788.602 723.145 788.004 722.298 787.595 721.357C787.186 720.416 786.973 719.402 786.97 718.376Z" fill="#1D2366"/>
<path d="M883.9 697.616C881.24 707.116 882.69 712.466 884.51 715.336V715.396C886.844 718.94 888.468 722.903 889.29 727.066L889.45 727.966L870.69 755.316L860.51 759.316C860.51 759.316 844.14 753.726 847.13 752.126C847.88 751.736 849.05 749.656 850.39 746.786C854.39 738.136 859.91 722.176 859.91 722.176V722.046C860.49 715.456 861.41 708.886 862.43 702.346C864.26 690.576 860.9 661.686 860.9 661.686C860.9 661.686 859.7 626.556 857.1 618.566C855.926 614.504 855.146 610.338 854.77 606.126C854.23 601.126 854.11 597.006 854.11 597.006C854.11 597.006 864.89 582.006 884.65 598.206C886.23 599.498 887.62 601.007 888.78 602.686C902.43 622.106 891.44 664.886 891.44 664.886C891.44 664.886 888.69 680.446 883.9 697.616Z" fill="#FFB0B1"/>
<path opacity="0.1" d="M889.48 727.966L870.72 755.316L860.54 759.316C860.54 759.316 844.17 753.726 847.16 752.126C847.91 751.736 849.08 749.656 850.42 746.786C857.35 746.726 860.94 753.326 860.94 753.326L869.72 751.926C869.72 751.926 881.3 729.166 883.9 727.776C886.5 726.386 884.3 717.386 884.3 717.386V715.096C884.37 715.176 884.43 715.266 884.51 715.346V715.406C886.844 718.95 888.468 722.913 889.29 727.076L889.48 727.966Z" fill="black"/>
<path d="M861.54 753.916C861.54 753.916 856.54 744.736 846.96 748.126C846.96 748.126 841.57 759.126 836.18 760.906C830.79 762.686 832.59 768.686 844.77 766.496C856.95 764.306 875.31 762.496 875.31 762.496L876.11 751.306L888.49 735.536C888.49 735.536 895.87 728.846 884.89 715.676V717.966C884.89 717.966 887.09 726.966 884.49 728.356C881.89 729.746 870.35 752.516 870.35 752.516L861.54 753.916Z" fill="#1D2366"/>
<path opacity="0.1" d="M787.87 591.606C788.043 594.631 788.437 597.639 789.05 600.606C777.79 598.956 767.34 599.776 760.49 600.316V591.406L787.87 591.606Z" fill="black"/>
<path opacity="0.1" d="M889.89 605.176C889.89 605.176 873.89 605.956 854.81 606.116C854.27 601.116 854.15 596.996 854.15 596.996C854.15 596.996 864.93 581.996 884.69 598.196C886.27 599.488 887.66 600.997 888.82 602.676C889.13 603.529 889.487 604.364 889.89 605.176Z" fill="black"/>
<path d="M889.89 603.376C889.89 603.376 819.81 606.766 798.45 600.776C777.09 594.786 755.92 599.976 752.73 598.586C749.54 597.196 752.13 575.426 754.93 570.036C757.73 564.646 773.09 510.136 773.09 510.136L787.87 433.076L803.44 428.786L804.54 428.476L831.67 420.996L851.55 415.506C851.55 415.506 891.08 569.836 887.69 581.216C886.459 585.574 886.26 590.159 887.11 594.606C887.628 597.644 888.564 600.595 889.89 603.376Z" fill="#1D2366"/>
<path d="M736.35 380.376C736.35 380.376 722.35 395.376 732.95 403.736C743.55 412.096 750.52 404.536 750.52 404.536L736.35 380.376Z" fill="#C7DAF5"/>
<path opacity="0.1" d="M736.35 380.376C736.35 380.376 722.35 395.376 732.95 403.736C743.55 412.096 750.52 404.536 750.52 404.536L736.35 380.376Z" fill="black"/>
<path d="M849.46 281.756C849.46 281.756 847.82 283.316 845.35 285.616C841.83 288.906 836.62 293.716 832 297.746C825.6 303.316 820.32 307.406 822.21 303.916C824.1 300.426 823.74 294.346 822.8 288.656C822.73 288.276 822.67 287.896 822.6 287.526C821.822 283.347 820.79 279.22 819.51 275.166C819.51 275.166 829.85 261.806 835.57 256.536C837.7 254.536 839.19 253.716 839.28 255.106C839.38 256.976 840.78 261.106 842.52 265.486C842.57 265.626 842.62 265.756 842.68 265.896C843.84 268.896 845.15 271.976 846.3 274.636C848.06 278.716 849.46 281.756 849.46 281.756Z" fill="#FFB0B1"/>
<path opacity="0.1" d="M842.68 265.896C841.708 271.123 839.351 275.992 835.854 279.996C832.357 284 827.848 286.991 822.8 288.656C822.005 284.091 820.906 279.585 819.51 275.166C819.51 275.166 838.98 250.016 839.28 255.106C839.35 257.036 840.87 261.316 842.68 265.896Z" fill="black"/>
<path opacity="0.1" d="M820.86 295.376L823.38 291.826C823.38 291.826 825.05 302.006 831.19 297.516C837.33 293.026 837.63 331.306 837.63 331.306L831.04 429.836L783.42 426.986L784.77 379.376L790.16 355.376L803.49 320.486L811.42 308.956L820.86 295.376Z" fill="black"/>
<path d="M837.63 331.916L831.63 421.006L831 430.446L804.45 428.856L803.45 428.796L783.45 427.596L784.8 379.976L790.19 355.976L803.52 321.086L811.45 309.556L820.89 295.926L823.41 292.386C823.41 292.386 825.08 302.566 831.22 298.076L831.35 297.986C837.35 294.186 837.63 331.916 837.63 331.916Z" fill="#1D2366"/>
<path d="M790.86 347.636C790.86 347.636 788.47 352.636 783.67 351.826C778.87 351.016 778.88 369.826 778.88 369.826C778.88 369.826 775.69 372.826 773.49 370.226C771.29 367.626 765.49 376.416 765.49 376.416L729.15 378.016C729.15 378.016 745.32 385.406 742.15 407.766C742.15 407.766 797.05 404.366 798.85 399.176C800.65 393.986 790.86 347.636 790.86 347.636Z" fill="white"/>
<path opacity="0.03" d="M790.86 347.636C790.86 347.636 788.47 352.636 783.67 351.826C778.87 351.016 778.88 369.826 778.88 369.826C778.88 369.826 775.69 372.826 773.49 370.226C771.29 367.626 765.49 376.416 765.49 376.416L729.15 378.016C729.15 378.016 745.32 385.406 742.15 407.766C742.15 407.766 797.05 404.366 798.85 399.176C800.65 393.986 790.86 347.636 790.86 347.636Z" fill="black"/>
<path d="M685.25 389.766L694.83 397.946L773.69 414.516L763.91 404.536L685.25 389.766Z" fill="white"/>
<path d="M821.01 298.526C819.7 300.526 815.95 310.766 812.82 319.706C810.21 327.156 808.03 333.706 808.03 333.706C808.03 333.706 802.94 366.846 800.34 372.836C797.74 378.826 799.15 402.186 799.15 402.186L789.46 459.876C789.46 459.876 785.07 489.626 778.29 507.396C771.6 524.886 764.15 533.086 763.92 533.346C766.92 529.286 783.27 449.346 783.27 449.346L788.67 348.526C788.67 348.526 789.46 338.946 790.26 330.756C791.06 322.566 807.26 311.386 807.26 311.386L822.88 289.176C824.45 291.276 823.4 294.936 821.01 298.526Z" fill="white"/>
<path d="M780.28 428.096C780.28 428.096 757.28 427.096 746.14 413.716C735 400.336 771.89 408.376 771.89 408.376L781.48 410.576L780.28 428.096Z" fill="#FFB0B1"/>
<path opacity="0.1" d="M887.69 581.226C886.459 585.584 886.26 590.169 887.11 594.616C862.02 596.396 835.18 589.616 835.18 589.616C830.18 594.216 817.01 600.996 817.01 600.996L809.83 511.996C805.24 499.996 803.44 437.126 803.44 437.126C803.44 437.126 803.85 433.836 804.44 428.906C804.44 428.786 804.44 428.656 804.49 428.536C806.28 414.766 809.83 388.916 811.57 385.426C813.97 380.626 804.19 367.856 804.19 367.856L808.64 329.906L809.18 325.326C818.56 321.136 825.75 307.756 825.75 307.756L831.27 298.086C837.27 294.236 837.58 331.966 837.58 331.966L831.58 421.056L851.46 415.566C851.46 415.566 891.08 569.846 887.69 581.226Z" fill="black"/>
<path d="M913.44 587.376C886.09 600.956 836.38 588.376 836.38 588.376C831.38 592.976 818.21 599.756 818.21 599.756L811.02 510.756C806.44 498.756 804.64 435.886 804.64 435.886C804.64 435.886 810.42 388.976 812.82 384.186C813.52 382.786 813.18 380.706 812.35 378.466C808.269 367.805 806.769 356.329 807.97 344.976L809.89 328.666L810.42 324.096C819.81 319.896 827 306.516 827 306.516L832 297.756L841.2 281.616L845.56 273.976L846.3 274.646L851.95 279.766C851.95 279.766 854.35 281.766 857.95 284.766C865.78 291.366 879.31 302.986 886.29 310.096C892.43 316.356 894.37 340.706 894.93 359.036C895.3 371.106 895.08 380.566 895.08 380.566C888.89 390.756 905.08 472.566 905.08 472.566C908.85 488.376 913.44 587.376 913.44 587.376Z" fill="white"/>
<path opacity="0.03" d="M860.94 306.316C860.94 306.316 842.17 342.046 844.35 355.626C846.53 369.206 852.73 384.576 849.74 388.166C848.713 389.526 847.385 390.63 845.86 391.392C844.335 392.154 842.654 392.552 840.95 392.556C837.95 392.756 829.95 398.346 829.95 398.946C829.95 399.546 822.56 399.546 815.95 402.346C809.34 405.146 799.58 406.736 799.58 406.736C799.58 406.736 780.58 406.136 778.81 407.936C777.04 409.736 775.22 420.506 779.01 429.096C782.8 437.686 787.01 444.096 790.19 445.266C793.37 446.436 813.55 439.676 829.92 438.076C846.29 436.476 864.06 423.506 864.06 423.506C864.06 423.506 883.63 416.506 887.06 404.736C890.49 392.966 882.87 328.276 882.87 328.276C882.87 328.276 877.11 298.126 860.94 306.316Z" fill="black"/>
<path opacity="0.03" d="M858.54 303.316C858.54 303.316 839.77 339.056 841.97 352.626C844.17 366.196 850.35 381.576 847.35 385.176C846.326 386.538 845 387.643 843.477 388.405C841.953 389.167 840.273 389.564 838.57 389.566C835.57 389.766 827.57 395.356 827.57 395.956C827.57 396.556 820.18 396.556 813.57 399.346C806.96 402.136 797.2 403.736 797.2 403.736C797.2 403.736 778.2 403.136 776.44 404.936C774.68 406.736 772.84 417.516 776.64 426.096C780.44 434.676 784.64 441.096 787.82 442.266C791 443.436 811.18 436.676 827.55 435.086C843.92 433.496 861.69 420.506 861.69 420.506C861.69 420.506 881.25 413.506 884.64 401.746C888.03 389.986 880.45 325.276 880.45 325.276C880.45 325.276 874.71 295.136 858.54 303.316Z" fill="black"/>
<path d="M860.35 304.516C860.35 304.516 841.58 340.256 843.78 353.826C845.98 367.396 852.16 382.776 849.17 386.366C848.146 387.731 846.819 388.839 845.294 389.603C843.768 390.366 842.086 390.765 840.38 390.766C837.38 390.966 829.38 396.556 829.38 397.146C829.38 397.736 822 397.746 815.38 400.546C808.76 403.346 799.01 404.936 799.01 404.936C799.01 404.936 780.01 404.336 778.24 406.136C776.47 407.936 774.65 418.716 778.44 427.296C782.23 435.876 786.44 442.296 789.62 443.466C792.8 444.636 812.98 437.876 829.35 436.276C845.72 434.676 863.49 421.706 863.49 421.706C863.49 421.706 883.06 414.706 886.49 402.936C889.92 391.166 882.35 326.476 882.35 326.476C882.35 326.476 876.51 296.376 860.35 304.516Z" fill="white"/>
<path opacity="0.1" d="M859.94 400.376C859.94 400.376 844.94 397.376 850.16 402.376C855.38 407.376 855.35 411.756 861.74 411.556C868.13 411.356 859.94 400.376 859.94 400.376Z" fill="black"/>
<path opacity="0.1" d="M885.29 507.956C885.29 507.956 878.51 512.546 891.48 523.126C904.45 533.706 885.29 507.956 885.29 507.956Z" fill="black"/>
<path opacity="0.1" d="M872.35 545.686C872.35 546.286 869.95 567.686 878.93 573.036C887.91 578.386 872.35 545.686 872.35 545.686Z" fill="black"/>
<path d="M729.77 377.966C722.53 378.216 706.89 380.426 715 395.556C722.17 408.946 734.22 399.996 741 393.206C739.346 386.876 735.327 381.421 729.77 377.966Z" fill="#FFB0B1"/>
<path d="M741.09 393.086L741.39 392.776L741.09 393.086Z" fill="#FFB0B1"/>
<path opacity="0.1" d="M857.95 285.376C850.27 290.626 843.83 295.056 842.57 295.976C839.13 298.526 832.57 313.496 828.34 321.136C824.97 327.286 814.02 328.866 809.89 329.256L810.42 324.686C819.81 320.486 827 307.106 827 307.106L845.56 274.566L851.95 280.376C851.95 280.376 854.35 282.376 857.95 285.376Z" fill="black"/>
<path d="M857.95 284.776C850.27 290.026 843.83 294.456 842.57 295.386C839.13 297.926 832.57 312.896 828.34 320.536C824.97 326.686 814.02 328.266 809.89 328.656L810.42 324.086C819.81 319.886 827 306.506 827 306.506L845.56 273.966L851.95 279.756C851.95 279.756 854.35 281.736 857.95 284.776Z" fill="#DCE7FF"/>
<path d="M843.17 259.296C843.174 265.299 841.354 271.162 837.95 276.106C833.93 281.953 827.948 286.164 821.088 287.977C814.228 289.79 806.946 289.084 800.563 285.987C794.18 282.889 789.118 277.607 786.296 271.097C783.475 264.587 783.08 257.281 785.184 250.506C787.288 243.73 791.752 237.933 797.764 234.166C803.777 230.4 810.941 228.913 817.956 229.977C824.971 231.04 831.372 234.583 835.998 239.962C840.624 245.342 843.169 252.201 843.17 259.296Z" fill="#FFB0B1"/>
<path opacity="0.1" d="M894.93 359.046C890.869 356.548 887.562 352.995 885.36 348.766C883.69 345.466 882.58 341.656 879.73 339.316C877.16 337.216 873.73 336.706 870.53 335.766C860.01 332.656 851.19 323.056 850.86 312.096C850.7 306.936 852.31 301.786 851.58 296.676C851.165 293.784 850.015 291.047 848.24 288.726C847.359 287.616 846.392 286.577 845.35 285.616C843.95 284.296 842.48 283.016 841.2 281.616C840.394 280.75 839.689 279.793 839.1 278.766C838.624 277.926 838.239 277.038 837.95 276.116C835.95 269.996 837.77 262.736 835.57 256.546L835.45 256.206C834.62 254.006 832.93 251.806 830.58 251.636C828.23 251.466 826.22 253.416 823.98 254.286C819.29 256.106 814.23 253.006 810.32 249.846C806.41 246.686 802 243.076 797.03 243.776C793.74 244.246 791.14 246.486 788.11 247.646C787.426 247.911 786.72 248.115 786 248.256C788.564 241.861 793.275 236.559 799.324 233.261C805.373 229.962 812.382 228.873 819.147 230.18C825.911 231.488 832.009 235.11 836.393 240.425C840.777 245.741 843.173 252.417 843.17 259.306C843.173 261.387 842.955 263.462 842.52 265.496C842.57 265.636 842.62 265.766 842.68 265.906C843.84 268.906 845.15 271.986 846.3 274.646L851.95 279.766C851.95 279.766 854.35 281.766 857.95 284.766C865.78 291.366 879.31 302.986 886.29 310.096C892.43 316.376 894.35 340.716 894.93 359.046Z" fill="black"/>
<path d="M787.76 229.376C789.19 226.466 789.9 223.206 791.61 220.446C794.12 216.446 798.5 213.886 803 212.336C814.75 208.286 839.58 202.406 847 212.336C848.46 214.336 849.67 216.556 851.69 217.936C853.23 218.986 855.09 219.436 856.78 220.226C861.51 222.446 864.53 227.286 866.14 232.226C867.75 237.166 868.23 242.466 869.41 247.556C870.92 254.086 873.57 260.276 876.21 266.426C879.32 273.686 882.62 281.216 888.62 286.346C896.81 293.346 898.62 303.256 906.22 310.936C915.22 320.056 914.93 335.106 910.29 347.056C909.68 348.626 908.99 350.266 909.23 351.936C909.47 353.606 910.71 355.126 911.88 356.456L916.8 362.006C905.16 364.816 891.99 358.736 886.57 348.066C884.9 344.766 883.79 340.966 880.93 338.616C878.37 336.516 874.93 336.016 871.74 335.076C861.22 331.956 852.4 322.346 852.07 311.386C851.91 306.236 853.52 301.086 852.79 295.986C852.384 293.075 851.23 290.319 849.44 287.986C846.69 284.396 842.54 281.986 840.3 277.986C836.51 271.296 839.39 262.606 836.66 255.426C835.82 253.226 834.14 251.026 831.79 250.856C829.44 250.686 827.43 252.636 825.18 253.506C820.5 255.326 815.44 252.236 811.53 249.066C807.62 245.896 803.21 242.296 798.23 243.006C794.94 243.466 792.35 245.706 789.32 246.876C787.08 247.736 782.54 248.506 780.58 246.616C776.44 242.806 786.03 232.936 787.76 229.376Z" fill="#591D4B"/>
<path opacity="0.1" d="M889.35 344.766C887.67 341.466 886.57 337.666 883.71 335.326C881.15 333.226 877.71 332.716 874.51 331.776C864 328.666 855.18 319.056 854.84 308.096C854.68 302.946 856.29 297.786 855.57 292.686C855.151 289.794 853.998 287.056 852.22 284.736C849.46 281.146 845.31 278.736 843.08 274.736C839.29 268.056 842.17 259.366 839.43 252.176C838.6 249.986 836.91 247.786 834.57 247.606C832.23 247.426 830.2 249.396 827.96 250.266C823.28 252.086 818.21 248.986 814.31 245.826C810.41 242.666 805.98 239.056 801.01 239.756C797.72 240.226 795.12 242.466 792.1 243.626C789.86 244.486 785.31 245.266 783.35 243.376C779.23 239.376 788.82 229.526 790.54 225.986C791.97 223.066 792.68 219.816 794.4 217.056C794.49 216.906 794.59 216.756 794.69 216.606C793.403 217.672 792.293 218.934 791.4 220.346C789.69 223.106 788.98 226.346 787.55 229.276C785.82 232.816 776.23 242.696 780.36 246.666C782.36 248.566 786.86 247.786 789.1 246.926C792.1 245.756 794.72 243.516 798.01 243.056C803.01 242.346 807.41 245.956 811.31 249.116C815.21 252.276 820.31 255.376 824.97 253.556C827.21 252.686 829.17 250.726 831.57 250.906C833.97 251.086 835.57 253.276 836.44 255.476C839.17 262.656 836.29 271.346 840.08 278.036C842.32 281.966 846.47 284.426 849.22 288.036C851.01 290.368 852.164 293.125 852.57 296.036C853.3 301.136 851.69 306.286 851.85 311.436C852.18 322.436 861 332.006 871.52 335.126C874.69 336.066 878.15 336.566 880.71 338.666C883.58 341.016 884.71 344.816 886.35 348.116C891.77 358.786 904.94 364.866 916.58 362.056L914.26 359.436C904.17 359.586 893.96 353.846 889.35 344.766Z" fill="black"/>
<path opacity="0.1" d="M820.41 299.126C819.1 301.126 815.35 311.366 812.22 320.306C809.29 319.166 806.63 311.896 806.63 311.896L822.25 289.676C823.85 291.876 822.8 295.526 820.41 299.126Z" fill="black"/>
<path d="M821.01 298.526C819.7 300.526 815.95 310.766 812.82 319.706C809.89 318.576 807.23 311.296 807.23 311.296L822.85 289.086C824.45 291.276 823.4 294.936 821.01 298.526Z" fill="#DCE7FF"/>
<path d="M730.19 400.686L721.53 373.376C721.427 373.057 721.389 372.72 721.417 372.385C721.445 372.051 721.539 371.725 721.693 371.427C721.847 371.128 722.059 370.863 722.316 370.647C722.573 370.431 722.87 370.268 723.19 370.166C723.834 369.965 724.532 370.027 725.132 370.338C725.731 370.649 726.183 371.184 726.39 371.826L735.05 399.106L734.19 404.816L730.19 400.686Z" fill="#BE8B87"/>
<path opacity="0.1" d="M722.35 370.976C722.996 370.772 723.696 370.832 724.298 371.143C724.9 371.454 725.353 371.991 725.56 372.636L734.22 399.916L733.57 404.196L734.2 404.856L735.06 399.146L726.35 371.866C726.143 371.224 725.691 370.689 725.092 370.378C724.492 370.067 723.794 370.005 723.15 370.206C722.608 370.382 722.14 370.734 721.82 371.206C721.99 371.115 722.167 371.038 722.35 370.976Z" fill="white"/>
<path d="M730.19 400.686L735.05 399.146L734.34 403.826L734.19 404.856L732.77 403.376L730.19 400.686Z" fill="#EFC8C4"/>
<path d="M732.77 403.376C732.855 403.269 732.96 403.181 733.08 403.116C733.15 403.072 733.232 403.048 733.315 403.048C733.398 403.048 733.48 403.072 733.55 403.116C733.618 403.199 733.675 403.289 733.72 403.386C733.786 403.497 733.876 403.591 733.983 403.662C734.091 403.733 734.213 403.779 734.34 403.796L734.19 404.796L732.77 403.376Z" fill="#727A9C"/>
<path d="M721.48 383.076C721.48 383.076 738.85 382.976 734.76 390.366C730.67 397.756 724.28 398.646 724.28 398.646L721.48 383.076Z" fill="#FFB0B1"/>
<path d="M740.1 10.0063H739.35C709.51 10.0063 683.12 25.7963 667.94 49.0963C652.76 25.7963 626.37 10.0063 596.53 10.0063H595.78C573.386 10.2198 551.981 19.2624 536.216 35.1691C520.452 51.0758 511.602 72.5612 511.59 94.9563C511.59 122.766 523.77 162.226 547.52 194.696C592.77 256.566 667.94 310.696 667.94 310.696C667.94 310.696 743.11 256.576 788.35 194.696C812.11 162.226 824.28 122.766 824.28 94.9563C824.268 72.563 815.419 51.079 799.657 35.1726C783.895 19.2661 762.492 10.2224 740.1 10.0063ZM729.37 199.456C725.972 199.443 722.656 198.403 719.86 196.472C717.063 194.541 714.916 191.81 713.7 188.636H695.86C694.685 188.629 693.542 188.255 692.59 187.567C691.638 186.878 690.925 185.91 690.55 184.796L685.07 168.286L667.73 228.876C667.392 230.043 666.685 231.068 665.715 231.798C664.745 232.529 663.564 232.924 662.35 232.926H662C660.733 232.865 659.525 232.371 658.579 231.526C657.633 230.682 657.005 229.538 656.8 228.286L638.93 120.806L625.87 184.406C625.571 185.615 624.875 186.688 623.894 187.454C622.914 188.221 621.705 188.637 620.46 188.636H595.33C594.577 188.668 593.825 188.547 593.119 188.281C592.414 188.015 591.77 187.609 591.225 187.087C590.681 186.565 590.248 185.939 589.952 185.245C589.656 184.552 589.504 183.805 589.504 183.051C589.504 182.297 589.656 181.551 589.952 180.858C590.248 180.164 590.681 179.538 591.225 179.016C591.77 178.494 592.414 178.088 593.119 177.822C593.825 177.555 594.577 177.434 595.33 177.466H616.06L634.56 91.9563C634.864 90.6921 635.597 89.5726 636.635 88.7892C637.673 88.0059 638.95 87.6073 640.249 87.6616C641.548 87.7159 642.788 88.2198 643.757 89.0871C644.726 89.9543 645.363 91.1312 645.56 92.4164L663.81 202.056L679.35 147.846C679.674 146.705 680.358 145.698 681.3 144.977C682.243 144.256 683.393 143.86 684.58 143.846H684.69C685.865 143.847 687.01 144.218 687.962 144.908C688.914 145.597 689.623 146.57 689.99 147.686L699.9 177.496H713.48C714.445 174.563 716.203 171.953 718.558 169.956C720.913 167.958 723.774 166.65 726.825 166.175C729.877 165.701 733 166.079 735.85 167.267C738.701 168.456 741.167 170.409 742.978 172.911C744.788 175.413 745.872 178.366 746.11 181.445C746.348 184.524 745.73 187.609 744.326 190.359C742.921 193.11 740.784 195.418 738.15 197.031C735.516 198.643 732.488 199.496 729.4 199.496L729.37 199.456Z" fill="#6C63FF"/>
<path d="M312.774 200.13C335.592 181.267 345.499 158.481 340.7 135.904C335.9 113.327 316.711 92.4542 286.613 77.0706C256.514 61.687 217.499 52.8112 176.643 52.0529C135.787 51.2946 95.7946 58.704 63.9187 72.9373C32.0429 87.1707 10.3943 107.286 2.89859 129.634C-4.59707 151.983 2.55661 175.086 23.0624 194.753C43.5681 214.42 76.0681 229.349 114.669 236.833C153.269 244.317 195.414 243.86 233.461 235.545C235.928 240.441 240.539 244.921 246.882 248.583C253.225 252.245 261.102 254.975 269.808 256.529C278.514 258.083 287.776 258.412 296.767 257.487C305.757 256.561 314.195 254.411 321.324 251.227C328.454 248.044 334.052 243.927 337.619 239.245C341.186 234.563 342.609 229.462 341.762 224.4C340.915 219.337 337.824 214.47 332.765 210.234C327.706 205.999 320.837 202.527 312.774 200.13V200.13Z" fill="#6C63FF"/>
<path d="M106.115 139H100.842V128.031H90.5586V139H85.2852V113.406H90.5586V123.777H100.842V113.406H106.115V139ZM119.158 139.352C116.369 139.352 114.096 138.496 112.338 136.785C110.592 135.074 109.719 132.795 109.719 129.947V129.455C109.719 127.545 110.088 125.84 110.826 124.34C111.564 122.828 112.607 121.668 113.955 120.859C115.314 120.039 116.861 119.629 118.596 119.629C121.197 119.629 123.242 120.449 124.73 122.09C126.23 123.73 126.98 126.057 126.98 129.068V131.143H114.869C115.033 132.385 115.525 133.381 116.346 134.131C117.178 134.881 118.227 135.256 119.492 135.256C121.449 135.256 122.979 134.547 124.08 133.129L126.576 135.924C125.814 137.002 124.783 137.846 123.482 138.455C122.182 139.053 120.74 139.352 119.158 139.352ZM118.578 123.742C117.57 123.742 116.75 124.082 116.117 124.762C115.496 125.441 115.098 126.414 114.922 127.68H121.988V127.275C121.965 126.15 121.66 125.283 121.074 124.674C120.488 124.053 119.656 123.742 118.578 123.742ZM135.242 139H130.145V112H135.242V139ZM156.564 129.666C156.564 132.596 155.896 134.945 154.561 136.715C153.236 138.473 151.443 139.352 149.182 139.352C147.26 139.352 145.707 138.684 144.523 137.348V146.312H139.443V119.98H144.154L144.33 121.844C145.561 120.367 147.166 119.629 149.146 119.629C151.49 119.629 153.312 120.496 154.613 122.23C155.914 123.965 156.564 126.355 156.564 129.402V129.666ZM151.484 129.297C151.484 127.527 151.168 126.162 150.535 125.201C149.914 124.24 149.006 123.76 147.811 123.76C146.217 123.76 145.121 124.369 144.523 125.588V133.375C145.145 134.629 146.252 135.256 147.846 135.256C150.271 135.256 151.484 133.27 151.484 129.297ZM180.084 137.066C178.83 138.59 177.096 139.352 174.881 139.352C172.842 139.352 171.283 138.766 170.205 137.594C169.139 136.422 168.594 134.705 168.57 132.443V119.98H173.65V132.268C173.65 134.248 174.553 135.238 176.357 135.238C178.08 135.238 179.264 134.641 179.908 133.445V119.98H185.006V139H180.225L180.084 137.066ZM199.139 133.744C199.139 133.123 198.828 132.637 198.207 132.285C197.598 131.922 196.613 131.6 195.254 131.318C190.73 130.369 188.469 128.447 188.469 125.553C188.469 123.865 189.166 122.459 190.561 121.334C191.967 120.197 193.801 119.629 196.062 119.629C198.477 119.629 200.404 120.197 201.846 121.334C203.299 122.471 204.025 123.947 204.025 125.764H198.945C198.945 125.037 198.711 124.439 198.242 123.971C197.773 123.49 197.041 123.25 196.045 123.25C195.189 123.25 194.527 123.443 194.059 123.83C193.59 124.217 193.355 124.709 193.355 125.307C193.355 125.869 193.619 126.326 194.146 126.678C194.686 127.018 195.588 127.316 196.854 127.574C198.119 127.82 199.186 128.102 200.053 128.418C202.736 129.402 204.078 131.107 204.078 133.533C204.078 135.268 203.334 136.674 201.846 137.752C200.357 138.818 198.436 139.352 196.08 139.352C194.486 139.352 193.068 139.07 191.826 138.508C190.596 137.934 189.629 137.154 188.926 136.17C188.223 135.174 187.871 134.102 187.871 132.953H192.688C192.734 133.855 193.068 134.547 193.689 135.027C194.311 135.508 195.143 135.748 196.186 135.748C197.158 135.748 197.891 135.566 198.383 135.203C198.887 134.828 199.139 134.342 199.139 133.744ZM233.469 129.666C233.469 132.713 232.818 135.092 231.518 136.803C230.217 138.502 228.4 139.352 226.068 139.352C224.006 139.352 222.359 138.561 221.129 136.979L220.9 139H216.33V112H221.41V121.686C222.582 120.314 224.123 119.629 226.033 119.629C228.354 119.629 230.17 120.484 231.482 122.195C232.807 123.895 233.469 126.291 233.469 129.385V129.666ZM228.389 129.297C228.389 127.375 228.084 125.975 227.475 125.096C226.865 124.205 225.957 123.76 224.75 123.76C223.133 123.76 222.02 124.422 221.41 125.746V133.252C222.031 134.588 223.156 135.256 224.785 135.256C226.426 135.256 227.504 134.447 228.02 132.83C228.266 132.057 228.389 130.879 228.389 129.297ZM243.506 131.811L247.021 119.98H252.471L244.824 141.953L244.402 142.955C243.266 145.439 241.391 146.682 238.777 146.682C238.039 146.682 237.289 146.57 236.527 146.348V142.498L237.301 142.516C238.262 142.516 238.977 142.369 239.445 142.076C239.926 141.783 240.301 141.297 240.57 140.617L241.168 139.053L234.506 119.98H239.973L243.506 131.811ZM95.252 175.744C95.252 175.123 94.9414 174.637 94.3203 174.285C93.7109 173.922 92.7266 173.6 91.3672 173.318C86.8438 172.369 84.582 170.447 84.582 167.553C84.582 165.865 85.2793 164.459 86.6738 163.334C88.0801 162.197 89.9141 161.629 92.1758 161.629C94.5898 161.629 96.5176 162.197 97.959 163.334C99.4121 164.471 100.139 165.947 100.139 167.764H95.0586C95.0586 167.037 94.8242 166.439 94.3555 165.971C93.8867 165.49 93.1543 165.25 92.1582 165.25C91.3027 165.25 90.6406 165.443 90.1719 165.83C89.7031 166.217 89.4688 166.709 89.4688 167.307C89.4688 167.869 89.7324 168.326 90.2598 168.678C90.7988 169.018 91.7012 169.316 92.9668 169.574C94.2324 169.82 95.2988 170.102 96.166 170.418C98.8496 171.402 100.191 173.107 100.191 175.533C100.191 177.268 99.4473 178.674 97.959 179.752C96.4707 180.818 94.5488 181.352 92.1934 181.352C90.5996 181.352 89.1816 181.07 87.9395 180.508C86.709 179.934 85.7422 179.154 85.0391 178.17C84.3359 177.174 83.9844 176.102 83.9844 174.953H88.8008C88.8477 175.855 89.1816 176.547 89.8027 177.027C90.4238 177.508 91.2559 177.748 92.2988 177.748C93.2715 177.748 94.0039 177.566 94.4961 177.203C95 176.828 95.252 176.342 95.252 175.744ZM109.561 157.305V161.98H112.812V165.707H109.561V175.199C109.561 175.902 109.695 176.406 109.965 176.711C110.234 177.016 110.75 177.168 111.512 177.168C112.074 177.168 112.572 177.127 113.006 177.045V180.895C112.01 181.199 110.984 181.352 109.93 181.352C106.367 181.352 104.551 179.553 104.48 175.955V165.707H101.703V161.98H104.48V157.305H109.561ZM126.664 181C126.43 180.543 126.26 179.975 126.154 179.295C124.924 180.666 123.324 181.352 121.355 181.352C119.492 181.352 117.945 180.812 116.715 179.734C115.496 178.656 114.887 177.297 114.887 175.656C114.887 173.641 115.631 172.094 117.119 171.016C118.619 169.938 120.781 169.393 123.605 169.381H125.943V168.291C125.943 167.412 125.715 166.709 125.258 166.182C124.812 165.654 124.104 165.391 123.131 165.391C122.275 165.391 121.602 165.596 121.109 166.006C120.629 166.416 120.389 166.979 120.389 167.693H115.309C115.309 166.592 115.648 165.572 116.328 164.635C117.008 163.697 117.969 162.965 119.211 162.438C120.453 161.898 121.848 161.629 123.395 161.629C125.738 161.629 127.596 162.221 128.967 163.404C130.35 164.576 131.041 166.229 131.041 168.361V176.605C131.053 178.41 131.305 179.775 131.797 180.701V181H126.664ZM122.463 177.467C123.213 177.467 123.904 177.303 124.537 176.975C125.17 176.635 125.639 176.184 125.943 175.621V172.352H124.045C121.502 172.352 120.148 173.23 119.984 174.988L119.967 175.287C119.967 175.92 120.189 176.441 120.635 176.852C121.08 177.262 121.689 177.467 122.463 177.467ZM141.764 173.811L145.279 161.98H150.729L143.082 183.953L142.66 184.955C141.523 187.439 139.648 188.682 137.035 188.682C136.297 188.682 135.547 188.57 134.785 188.348V184.498L135.559 184.516C136.52 184.516 137.234 184.369 137.703 184.076C138.184 183.783 138.559 183.297 138.828 182.617L139.426 181.053L132.764 161.98H138.23L141.764 173.811ZM158.094 181H152.996V161.98H158.094V181ZM152.697 157.059C152.697 156.297 152.949 155.67 153.453 155.178C153.969 154.686 154.666 154.439 155.545 154.439C156.412 154.439 157.104 154.686 157.619 155.178C158.135 155.67 158.393 156.297 158.393 157.059C158.393 157.832 158.129 158.465 157.602 158.957C157.086 159.449 156.4 159.695 155.545 159.695C154.689 159.695 153.998 159.449 153.471 158.957C152.955 158.465 152.697 157.832 152.697 157.059ZM166.971 161.98L167.129 164.178C168.488 162.479 170.311 161.629 172.596 161.629C174.611 161.629 176.111 162.221 177.096 163.404C178.08 164.588 178.584 166.357 178.607 168.713V181H173.527V168.836C173.527 167.758 173.293 166.979 172.824 166.498C172.355 166.006 171.576 165.76 170.486 165.76C169.057 165.76 167.984 166.369 167.27 167.588V181H162.189V161.98H166.971ZM181.736 171.35C181.736 168.432 182.428 166.082 183.811 164.301C185.205 162.52 187.08 161.629 189.436 161.629C191.521 161.629 193.145 162.344 194.305 163.773L194.516 161.98H199.121V180.367C199.121 182.031 198.74 183.479 197.979 184.709C197.229 185.939 196.168 186.877 194.797 187.521C193.426 188.166 191.82 188.488 189.98 188.488C188.586 188.488 187.227 188.207 185.902 187.645C184.578 187.094 183.576 186.379 182.896 185.5L185.146 182.406C186.412 183.824 187.947 184.533 189.752 184.533C191.1 184.533 192.148 184.17 192.898 183.443C193.648 182.729 194.023 181.709 194.023 180.385V179.365C192.852 180.689 191.311 181.352 189.4 181.352C187.115 181.352 185.264 180.461 183.846 178.68C182.439 176.887 181.736 174.514 181.736 171.561V171.35ZM186.816 171.719C186.816 173.441 187.162 174.795 187.854 175.779C188.545 176.752 189.494 177.238 190.701 177.238C192.248 177.238 193.355 176.658 194.023 175.498V167.5C193.344 166.34 192.248 165.76 190.736 165.76C189.518 165.76 188.557 166.258 187.854 167.254C187.162 168.25 186.816 169.738 186.816 171.719ZM216.963 164.055C218.311 162.438 220.004 161.629 222.043 161.629C226.168 161.629 228.26 164.025 228.318 168.818V181H223.238V168.959C223.238 167.869 223.004 167.066 222.535 166.551C222.066 166.023 221.287 165.76 220.197 165.76C218.709 165.76 217.631 166.334 216.963 167.482V181H211.883V154H216.963V164.055ZM231.359 171.314C231.359 169.428 231.723 167.746 232.449 166.27C233.176 164.793 234.219 163.65 235.578 162.842C236.949 162.033 238.537 161.629 240.342 161.629C242.908 161.629 245 162.414 246.617 163.984C248.246 165.555 249.154 167.688 249.342 170.383L249.377 171.684C249.377 174.602 248.562 176.945 246.934 178.715C245.305 180.473 243.119 181.352 240.377 181.352C237.635 181.352 235.443 180.473 233.803 178.715C232.174 176.957 231.359 174.566 231.359 171.543V171.314ZM236.439 171.684C236.439 173.488 236.779 174.871 237.459 175.832C238.139 176.781 239.111 177.256 240.377 177.256C241.607 177.256 242.568 176.787 243.26 175.85C243.951 174.9 244.297 173.389 244.297 171.314C244.297 169.545 243.951 168.174 243.26 167.201C242.568 166.229 241.596 165.742 240.342 165.742C239.1 165.742 238.139 166.229 237.459 167.201C236.779 168.162 236.439 169.656 236.439 171.684ZM257.27 161.98L257.428 164.107C258.775 162.455 260.598 161.629 262.895 161.629C265.344 161.629 267.025 162.596 267.939 164.529C269.275 162.596 271.18 161.629 273.652 161.629C275.715 161.629 277.25 162.232 278.258 163.439C279.266 164.635 279.77 166.439 279.77 168.854V181H274.672V168.871C274.672 167.793 274.461 167.008 274.039 166.516C273.617 166.012 272.873 165.76 271.807 165.76C270.283 165.76 269.229 166.486 268.643 167.939L268.66 181H263.58V168.889C263.58 167.787 263.363 166.99 262.93 166.498C262.496 166.006 261.758 165.76 260.715 165.76C259.273 165.76 258.23 166.357 257.586 167.553V181H252.506V161.98H257.27ZM292.443 181.352C289.654 181.352 287.381 180.496 285.623 178.785C283.877 177.074 283.004 174.795 283.004 171.947V171.455C283.004 169.545 283.373 167.84 284.111 166.34C284.85 164.828 285.893 163.668 287.24 162.859C288.6 162.039 290.146 161.629 291.881 161.629C294.482 161.629 296.527 162.449 298.016 164.09C299.516 165.73 300.266 168.057 300.266 171.068V173.143H288.154C288.318 174.385 288.811 175.381 289.631 176.131C290.463 176.881 291.512 177.256 292.777 177.256C294.734 177.256 296.264 176.547 297.365 175.129L299.861 177.924C299.1 179.002 298.068 179.846 296.768 180.455C295.467 181.053 294.025 181.352 292.443 181.352ZM291.863 165.742C290.855 165.742 290.035 166.082 289.402 166.762C288.781 167.441 288.383 168.414 288.207 169.68H295.273V169.275C295.25 168.15 294.945 167.283 294.359 166.674C293.773 166.053 292.941 165.742 291.863 165.742Z" fill="white"/>
<defs>
<linearGradient id="paint0_linear" x1="449.54" y1="783.347" x2="449.54" y2="168.007" gradientUnits="userSpaceOnUse">
<stop stop-color="#808080" stop-opacity="0.25"/>
<stop offset="0.54" stop-color="#808080" stop-opacity="0.12"/>
<stop offset="1" stop-color="#808080" stop-opacity="0.1"/>
</linearGradient>
<linearGradient id="paint1_linear" x1="223123" y1="464282" x2="223123" y2="148423" gradientUnits="userSpaceOnUse">
<stop stop-color="#808080" stop-opacity="0.25"/>
<stop offset="0.54" stop-color="#808080" stop-opacity="0.12"/>
<stop offset="1" stop-color="#808080" stop-opacity="0.1"/>
</linearGradient>
</defs>
</svg>
